<?xml version="1.0" encoding="utf-8"?>
<!-- Generator: Adobe Illustrator 28.2.0, SVG Export Plug-In . SVG Version: 6.00 Build 0)  -->
<svg version="1.1" id="layer" xmlns="http://www.w3.org/2000/svg" xmlns:xlink="http://www.w3.org/1999/xlink" x="0px" y="0px"
	 viewBox="0 0 3000 3000" style="enable-background:new 0 0 3000 3000;" xml:space="preserve">
<style type="text/css">
	.st0{display:none;fill:none;stroke:#000000;stroke-width:50;stroke-miterlimit:10;}
	.st1{fill:none;stroke:#000000;stroke-width:16.7586;stroke-linecap:round;stroke-linejoin:round;stroke-miterlimit:10;}
	.st2{fill:none;stroke:#000000;stroke-width:12.5064;stroke-miterlimit:10;}
	.st3{stroke:#000000;stroke-width:1.2506;stroke-miterlimit:9.9996;}
	.st4{stroke:#000000;stroke-width:1.2507;stroke-miterlimit:10.0006;}
	.st5{stroke:#000000;stroke-width:1.2507;stroke-miterlimit:10.0002;}
	.st6{stroke:#000000;stroke-width:0.2501;stroke-linecap:round;stroke-linejoin:round;stroke-miterlimit:10;}
	.st7{enable-background:new    ;}
	.st8{clip-path:url(#SVGID_00000062158176045577561130000006257201674544516015_);}
	.st9{clip-path:url(#SVGID_00000098902007917715944450000002330415095146898101_);}
	.st10{fill:none;stroke:#000000;stroke-width:12.5064;stroke-linecap:round;stroke-linejoin:round;stroke-miterlimit:10;}
	.st11{display:none;fill:none;stroke:#000000;stroke-width:50;stroke-linecap:round;stroke-linejoin:round;stroke-miterlimit:10;}
	
		.st12{display:none;fill:none;stroke:#000000;stroke-width:49.9978;stroke-linecap:round;stroke-linejoin:round;stroke-miterlimit:9.9996;}
</style>
<image style="display:none;overflow:visible;enable-background:new    ;" width="1024" height="1024" xlink:href="58824341.png"  transform="matrix(3.1975 0 0 3.1975 -88.7223 -136.9989)">
</image>
<path class="st0" d="M1628.4,2361.9c-81.5,0-157.7-11.3-226.6-33.5c-82.7-26.7-153-69-208.9-125.6c-19.5-19.5-10.5-72.9,5.5-152.1
	c4.7-23.2,9-45,11.4-62.6c3.1-23.2,1.2-29.6,0.5-31.1c-3.5-3.4-21.6-9.5-36.1-14.5c-43.2-14.6-115.5-39.2-168.6-92.9
	c-64.4-65.2-84.4-156.4-59.5-271c0.4-1.6,1.1-3.2,2.2-4.4c2.9-3.3,71.3-81,190.6-160c70.1-46.4,143.1-83.3,217.1-109.9
	c92.6-33.2,186.9-50,280.3-50c111,0,222.2,23.8,330.8,70.8c2.8,1.2,4.9,3.6,5.7,6.6l70.3,262.5c1.6,4.4,12.8,36,17.9,78.2
	c7.3,59.6-1.2,111.7-24.6,150.6c-27.5,45.6-74.9,74.2-141,84.9c6.2,35-2.6,63.7-10.5,89.2c-5.8,18.8-11.3,36.6-10.4,55.1
	c0.4,9.3,5.3,26.2,11,45.8c15.8,54.6,39.7,137,7.1,192.4c-15.3,26-41.4,43.3-77.6,51.5C1774.4,2350.9,1709,2361.9,1628.4,2361.9z"/>
<g>
	<path class="st1" d="M412.6,1467.4c0,0,108.1-123.9,251.9-61.7l17.6,65.8c0,0,23.8,66.1-39,74.2c4.1,15.9-3.8,27.4-3.2,39.7
		c0.6,12.3,25.8,61.1-12.9,69.9c-38.8,8.8-109.2,10.6-153.3-34.1c-7.6-7.6,8.8-54,4.7-61.1C474.3,1553.2,395,1548.4,412.6,1467.4z"
		/>
	<path class="st2" d="M410.9,1469.9c-0.7,0-1.4-0.3-1.9-0.9c-0.7-0.7-16-18.3-26.5-42.8c-6.2-14.5-9.4-28.4-9.5-41.4
		c-0.1-16.3,4.7-31.1,14.3-43.9c16.1-26.8,42.4-49.4,74.1-63.6c15.1-6.7,30.6-11.3,46.1-13.5c15.8-2.3,30.9-2,44.8,0.8
		c1,0.2,1.8,1,2,2c3.7,18.6,2.2,36.2-4.5,52.3c-5.3,12.9-13.9,24.8-25.6,35.5c-19.7,18.1-41.1,26.2-42,26.6
		c-1.3,0.5-2.7-0.2-3.2-1.5c-0.5-1.3,0.2-2.7,1.5-3.2l0,0c0.2-0.1,21.5-8.2,40.5-25.7c24.8-22.8,34.5-50.2,28.7-81.4
		c-7.1-1.3-14.4-2-21.8-2c-51.8,0-109.3,31-136.4,76.3c-0.1,0.1-0.1,0.2-0.2,0.2c-16.4,21.8-17.8,48.8-4.3,80.3
		c10.2,23.8,25.6,41.4,25.7,41.6c0.9,1,0.8,2.6-0.2,3.5C412,1469.7,411.5,1469.9,410.9,1469.9z"/>
	<path class="st2" d="M481.4,1378.7c0,0,86.3-32.3,70.5-111.6c-55.2-11.2-129,19.4-162.5,75.2c-40.9,54.4,21.5,125.1,21.5,125.1"/>
	<path class="st2" d="M665.2,1410.6c-1.1,0-2.1-0.7-2.4-1.8c-0.4-1.3,0.4-2.7,1.7-3.1c0.3-0.1,28.1-8,50.8-26
		c17.6-13.9,31-34.8,37.6-58.9c8.5-30.2-3.5-57.3-11.1-67.4c-8.2-11-25-20.1-46.1-25.2c-25.1-6-55.5-5-83.2,2.8
		c-27.9,7.8-49.3,21.5-58.5,37.4c-0.7,1.2-2.2,1.6-3.4,0.9c-1.2-0.7-1.6-2.2-0.9-3.4c5.1-8.8,13.4-16.8,24.5-23.8
		c10.3-6.5,23.1-12,36.9-15.9c28.6-8,59.9-9.1,85.8-2.9c22.3,5.3,40.1,15.2,49,27.1c5.6,7.6,10.3,18.3,12.8,29.5
		c3.2,14.2,2.9,28.8-0.9,42.3c-6.9,25.1-20.9,46.9-39.3,61.5c-23.6,18.6-51.4,26.5-52.6,26.9
		C665.6,1410.5,665.4,1410.6,665.2,1410.6z"/>
	<path class="st2" d="M432.4,1294.6c-0.7,0-1.5-0.3-2-0.9c-0.3-0.3-6.3-7.3-4.4-16.2c1.5-6.9,7.2-12.7,17-17.3
		c13.8-6.4,23-8.8,29.9-7.8c8.4,1.2,12.6,7.3,15.6,13.1c0.7,1.2,0.2,2.7-1.1,3.4c-1.2,0.7-2.7,0.2-3.4-1.1c-5.4-10.3-11-16.1-39-3
		c-8.3,3.9-13.1,8.5-14.3,13.8c-1.4,6.4,3.2,11.8,3.3,11.8c0.9,1.1,0.8,2.6-0.3,3.5C433.5,1294.4,433,1294.6,432.4,1294.6z"/>
	<path class="st2" d="M431.7,1293.9c0,0-14.4-17.5,12.6-29.2c27-11.7,35.5-8.3,42.1,5.3"/>
	<path class="st2" d="M473.7,1347.3c-1.1,0-2.1-0.7-2.4-1.9c-13.6-49.4-6-67.4-5.6-68.2c0.6-1.3,2.1-1.8,3.3-1.3
		c1.3,0.6,1.8,2,1.3,3.3c0,0.1-1.8,4.4-2,14.5c-0.2,9.3,1.1,25.7,7.9,50.4c0.4,1.3-0.4,2.7-1.8,3.1
		C474.2,1347.2,473.9,1347.3,473.7,1347.3z"/>
	<path class="st2" d="M468,1275.8c0,0-7.8,17.4,5.7,66.5"/>
	
		<ellipse transform="matrix(0.9992 -3.900280e-02 3.900280e-02 0.9992 -57.0471 25.6225)" class="st3" cx="628.2" cy="1474.9" rx="31.2" ry="45.2"/>
	
		<ellipse transform="matrix(0.9992 -3.900280e-02 3.900280e-02 0.9992 -57.2488 21.3852)" class="st3" cx="519.5" cy="1477.9" rx="40.9" ry="50.5"/>
	
		<ellipse transform="matrix(0.7988 -0.6017 0.6017 0.7988 -797.5544 662.2712)" class="st4" cx="591.2" cy="1523.3" rx="8.6" ry="16.3"/>
	
		<ellipse transform="matrix(0.4453 -0.8954 0.8954 0.4453 -1044.2799 1363.7858)" class="st5" cx="578.5" cy="1524.7" rx="16.5" ry="8.4"/>
	<path class="st6" d="M679.3,1499.3c0,0,0.8,29.4-32,35.2c-14.1,2.8-13.8,13.7-13.8,13.7s2.2,32-8.9,38c-9.1,4.9-10.3-5.5-10.4-6.3
		c-0.5-1.1-2.8-23.7-7.8-10.4c-2,4.8-0.9,20-9.9,20.5c-9,0.5-9.1-17.9-9.1-17.9s-2.5-16.2-6.9,0c-1.6,6.4-3.9,25.2-14.4,15.7
		c-3.8-4.1-7.6-36.7-13.7-14c-3.9,15.4-13,23.3-20.2,6.8c-3.2-7-3-33.3-12.5-38.5c-9.5-5.2-30.4-4.6-42.5-22.2
		c-3.6-6.2-6.7-16.2-8.3-20.8c-0.3-0.8-0.4-1.1-0.8-1.8c-0.2-0.5-1.2-2.7-2.1-3.1c-0.7-0.3-1.2,0.5-1,3.8
		c0.5,7.6,2.9,22.4,13.3,35.6c20.2,20.1,36.8,4.4,38.1,36.4c4.2,32.8,26.5,30.8,26.5,30.8s10.7-0.5,14.2-6.1c0,0,13.8,12.5,28.4-0.5
		c0,0,11,10.8,24.3-0.4c0,0,10,8,20,0.1c0.1-0.1,3.6-2.6,5.4,4.1s8.5-40.2,8.5-40.2l4.8-11.9l22.8-11.6l12.3-23.9L679.3,1499.3z"/>
	<g>
		<g>
			<g class="st7">
				<g>
					<defs>
						<polygon id="SVGID_1_" points="342.2,1578 294.5,1474.1 377.8,1460.9 425.5,1564.9 						"/>
					</defs>
					<clipPath id="SVGID_00000033335109074273655470000001464762491931887030_">
						<use xlink:href="#SVGID_1_"  style="overflow:visible;"/>
					</clipPath>
					<g style="clip-path:url(#SVGID_00000033335109074273655470000001464762491931887030_);">
						<g>
							<g>
								<g>
									<path d="M315.1,1493.8c-0.6-1.4-0.9-2.8-0.9-4.1c0-2.3,0.7-4.3,2.1-5.9c0.7-0.8,1.6-1.5,2.6-2s2.2-0.9,3.5-1.1l36.8-5.8
										c1.7-0.3,3.5-0.2,5.3,0.2c2.6,0.5,5.2,1.7,7.4,3.4c1.1,0.8,2.1,1.8,3,2.8c0.7,0.9,1.3,1.8,1.8,2.7c2.3,0.5,4.5,2.1,5.4,4.2
										c1,2.1,0.5,4.1-1.1,5.2l2.1,4.5c2.3,0.5,4.4,2.1,5.4,4.2c1,2.1,0.5,4.1-1.1,5.2l17.2,37.5c0.8,1.6,1.1,3.2,1.1,4.7
										c0,2.3-0.7,4.3-2.1,5.9c-0.7,0.8-1.6,1.5-2.6,2c-1,0.5-2.2,0.9-3.5,1.1l-36.8,5.8c-1.7,0.3-3.5,0.2-5.3-0.2
										c-2.6-0.6-5.2-1.7-7.4-3.4c-1.1-0.8-2.1-1.8-3-2.8c-0.9-1.1-1.6-2.2-2.2-3.4l-17.3-37.6c-2.2-0.6-4.2-2.1-5.1-4.1
										c-0.9-2-0.5-3.9,0.9-5l-2.2-4.7c-2.2-0.6-4.2-2.1-5.1-4.1C313.3,1496.8,313.7,1494.9,315.1,1493.8 M354.5,1464.6l-36.8,5.8
										c-3.2,0.5-6,1.6-8.3,3.2c-3.4,2.3-5.7,5.7-6.6,9.6c-0.5,2-0.6,4.1-0.3,6.2c0.3,2.2,0.9,4.4,2,6.7l27.5,60
										c1.4,3,3.4,5.8,5.8,8.3c3.6,3.7,8.1,6.6,12.9,8.3c2.4,0.9,4.9,1.5,7.4,1.8c2.5,0.3,5,0.3,7.4-0.1l36.8-5.8
										c3.2-0.5,6-1.6,8.3-3.2c3.4-2.3,5.7-5.7,6.6-9.6c0.5-2,0.6-4.1,0.3-6.2c-0.3-2.2-0.9-4.4-2-6.7l-27.5-60
										c-1.4-3-3.4-5.8-5.8-8.3c-3.6-3.7-8.1-6.6-12.9-8.3c-2.4-0.9-4.9-1.5-7.4-1.8C359.4,1464.2,356.9,1464.2,354.5,1464.6"/>
									<path d="M317.3,1492.8c-0.9,0.1-1.6,0.5-2.2,0.9c-1.4,1.1-1.8,3.1-0.9,5.1c0.9,2,2.9,3.5,5.1,4.1c0.9,0.2,1.8,0.3,2.7,0.2
										c19-3,38-6,57.1-9c0.8-0.1,1.4-0.4,2-0.8c1.6-1.1,2.1-3.1,1.1-5.2c-1-2.1-3.2-3.7-5.4-4.2c-0.8-0.2-1.6-0.2-2.3-0.1
										C355.4,1486.8,336.3,1489.8,317.3,1492.8"/>
									<path d="M323.7,1506.7c-0.9,0.2-1.6,0.5-2.2,0.9c-1.4,1.1-1.8,3.1-0.9,5c0.9,2,2.9,3.5,5.1,4.1c0.9,0.2,1.8,0.3,2.7,0.2
										c19-3,38-6,57.1-9c0.8-0.1,1.4-0.4,2-0.8c1.6-1.1,2.1-3.1,1.1-5.2c-1-2.1-3.1-3.7-5.4-4.2c-0.8-0.2-1.6-0.2-2.4-0.1
										C361.7,1500.6,342.7,1503.7,323.7,1506.7"/>
									<path d="M360.7,1520.7c-1.9,0.3-3.5,0.9-4.8,1.9c-2,1.4-3.3,3.3-3.8,5.6c-0.3,1.2-0.3,2.4-0.2,3.6c0.2,1.3,0.5,2.6,1.2,3.9
										c0.8,1.8,2,3.4,3.4,4.8c2.1,2.2,4.7,3.8,7.5,4.9c1.4,0.5,2.9,0.9,4.3,1.1c1.5,0.2,2.9,0.2,4.3,0c1.9-0.3,3.5-0.9,4.8-1.9
										c2-1.4,3.3-3.3,3.8-5.6c0.3-1.2,0.3-2.4,0.2-3.6c-0.2-1.3-0.5-2.6-1.2-3.9l-3.8,0.6l-3.8,0.6c0.4,0.8,0.5,1.6,0.6,2.3
										c0,1.1-0.4,2.1-1,2.8c-0.4,0.4-0.8,0.7-1.2,1s-1,0.4-1.7,0.5c-0.8,0.1-1.7,0.1-2.5-0.1c-1.3-0.3-2.5-0.8-3.6-1.6
										c-0.5-0.4-1-0.9-1.4-1.4c-0.4-0.5-0.8-1.1-1.1-1.7c-0.4-0.8-0.5-1.6-0.6-2.3c0-1.1,0.4-2.1,1-2.8c0.3-0.4,0.8-0.7,1.2-1
										s1-0.4,1.7-0.5c0.8-0.1,1.7-0.1,2.5,0.1c1.3,0.3,2.5,0.8,3.6,1.6c0.5,0.4,1,0.9,1.4,1.4c0.4,0.5,0.8,1.1,1.1,1.7l3.8-0.6
										l3.8-0.6c-0.8-1.8-2-3.4-3.4-4.8c-2.1-2.2-4.7-3.8-7.5-4.9c-1.4-0.5-2.9-0.9-4.3-1.1
										C363.5,1520.5,362.1,1520.5,360.7,1520.7"/>
								</g>
							</g>
						</g>
					</g>
				</g>
			</g>
		</g>
	</g>
	<g>
		<g>
			<g class="st7">
				<g>
					<defs>
						<polygon id="SVGID_00000137836366578801224580000012757277592511796117_" points="715,1521.9 665.1,1413 758.2,1398.3 
							808.2,1507.1 						"/>
					</defs>
					<clipPath id="SVGID_00000014610483390038594360000005932079304607726217_">
						<use xlink:href="#SVGID_00000137836366578801224580000012757277592511796117_"  style="overflow:visible;"/>
					</clipPath>
					<g style="clip-path:url(#SVGID_00000014610483390038594360000005932079304607726217_);">
						<g>
							<g>
								<g>
									<path d="M698.7,1407.7c-2.8,0.5-5.3,1.4-7.4,2.6c-3.2,1.9-5.5,4.7-6.8,8c-0.6,1.7-1,3.5-1.1,5.4c0,1.9,0.2,3.9,0.8,6
										l16.8,60.8c0.4,1.3,0.8,2.5,1.4,3.7c1.2,2.7,2.9,5.1,4.9,7.4c3.1,3.4,6.9,6.2,11.1,8.1c2.1,1,4.3,1.8,6.6,2.3
										s4.6,0.8,6.8,0.8l38.9-0.1c1.4,0,2.7-0.1,4-0.3c2.8-0.5,5.3-1.4,7.4-2.6c3.2-1.9,5.5-4.7,6.8-8c0.6-1.7,1-3.5,1.1-5.4
										c0-1.9-0.2-3.9-0.8-6l-16.8-60.8c-0.4-1.3-0.8-2.5-1.4-3.7c-1.2-2.7-2.9-5.1-4.9-7.4c-3.1-3.4-6.9-6.2-11.1-8.1
										c-2.1-1-4.3-1.8-6.6-2.3c-2.3-0.5-4.6-0.8-6.8-0.8l1.4,5.2l1.4,5.2c1.7,0,3.3,0.3,4.9,0.8c2.4,0.7,4.6,2,6.5,3.6
										c1.9,1.6,3.4,3.5,4.4,5.6c0.2,0.4,0.4,0.8,0.5,1.2c2.3,0.8,4.2,2.6,4.8,4.8c0.6,2.1-0.3,4-2.1,4.8l1.3,4.5
										c2.3,0.8,4.2,2.6,4.8,4.8c0.6,2.1-0.3,4-2.1,4.8l10.5,38c0.4,1.5,0.5,2.9,0.3,4.2c-0.3,2-1.2,3.7-2.6,5
										c-1.4,1.3-3.3,2.2-5.5,2.6c-0.7,0.1-1.4,0.2-2.1,0.2l-38.9,0.1c-1.7,0-3.3-0.3-4.9-0.8c-2.4-0.7-4.6-2-6.5-3.6
										c-1.9-1.6-3.4-3.5-4.4-5.6c-0.3-0.6-0.5-1.3-0.7-2l-10.5-38.1c-2.1-0.9-3.9-2.6-4.4-4.6c-0.6-2,0.2-3.8,1.9-4.6l-1.3-4.8
										c-2.1-0.9-3.9-2.6-4.4-4.6c-0.6-2,0.3-3.8,1.9-4.7c-0.3-1.3-0.3-2.5-0.2-3.6c0.3-2,1.2-3.7,2.6-5c1.4-1.3,3.3-2.2,5.5-2.6
										c0.7-0.1,1.4-0.2,2.1-0.2l38.9-0.1l-1.4-5.2l-1.4-5.2l-38.9,0.1C701.2,1407.4,699.9,1407.5,698.7,1407.7"/>
									<path d="M697,1428.6c-0.6,0.1-1.1,0.3-1.5,0.5c-1.7,0.9-2.5,2.6-1.9,4.7c0.6,2,2.3,3.8,4.4,4.6c0.9,0.4,1.8,0.6,2.7,0.6
										c20.1,0,40.2-0.1,60.4-0.1c0.3,0,0.6,0,0.9-0.1c0.5-0.1,0.9-0.2,1.3-0.4c1.8-0.8,2.7-2.6,2.1-4.8c-0.6-2.1-2.5-4-4.8-4.8
										c-0.8-0.3-1.6-0.4-2.4-0.4c-20.1,0-40.2,0.1-60.4,0.1C697.6,1428.6,697.2,1428.6,697,1428.6"/>
									<path d="M700.8,1442.7c-0.6,0.1-1.1,0.3-1.5,0.5c-1.6,0.9-2.4,2.6-1.9,4.6c0.6,2,2.3,3.8,4.4,4.6c0.9,0.4,1.8,0.6,2.7,0.6
										c20.1,0,40.2-0.1,60.4-0.1c0.3,0,0.6,0,0.9-0.1c0.5-0.1,0.9-0.2,1.3-0.4c1.8-0.8,2.7-2.6,2.1-4.8s-2.5-4-4.8-4.8
										c-0.8-0.3-1.6-0.4-2.4-0.4c-20.1,0-40.2,0.1-60.4,0.1C701.4,1442.6,701.1,1442.6,700.8,1442.7"/>
									<path d="M747,1474.4L747,1474.4L747,1474.4L747,1474.4 M743.3,1480c-0.3,0.1-0.7,0.1-1,0.1c-0.8,0-1.6-0.1-2.3-0.4
										c-1.1-0.4-2.2-1-3.1-1.7c-0.9-0.8-1.7-1.7-2.1-2.7c-0.2-0.3-0.3-0.6-0.4-1c-0.2-0.7-0.3-1.4-0.2-2c0.1-1,0.6-1.8,1.2-2.4
										s1.6-1.1,2.7-1.3c0.3-0.1,0.7-0.1,1-0.1c0.8,0,1.6,0.1,2.3,0.4c1.1,0.4,2.2,1,3.1,1.7c0.9,0.8,1.7,1.7,2.1,2.7
										c0.2,0.3,0.3,0.6,0.4,1l0,0c0.2,0.7,0.3,1.4,0.2,2c-0.1,1-0.6,1.8-1.2,2.4C745.3,1479.4,744.4,1479.9,743.3,1480
										 M734.8,1461.6c-1.6,0.3-3.1,0.8-4.3,1.5c-1.9,1.1-3.2,2.7-4,4.7c-0.7,2-0.8,4.2-0.2,6.6l0,0c0.2,0.7,0.5,1.4,0.8,2.1
										c0.7,1.6,1.7,3,2.9,4.3c1.8,2,4,3.6,6.5,4.7c2.5,1.2,5.2,1.8,7.8,1.8c0.8,0,1.6-0.1,2.3-0.2c0,0,0,0,0,0
										c1.6-0.3,3.1-0.8,4.3-1.5c1.9-1.1,3.2-2.7,4-4.7c0.7-2,0.8-4.2,0.2-6.6l0,0c-0.2-0.7-0.5-1.4-0.8-2.1
										c-0.7-1.6-1.7-3-2.9-4.3c-1.8-2-4-3.6-6.5-4.7c-2.5-1.2-5.2-1.8-7.8-1.8C736.3,1461.4,735.6,1461.4,734.8,1461.6
										C734.8,1461.6,734.8,1461.6,734.8,1461.6"/>
								</g>
							</g>
						</g>
					</g>
				</g>
			</g>
		</g>
	</g>
	<path class="st10" d="M327.1,1469.9c-27-54.4-29.3-119.8,0-168.7c29.3-48.9,71.7-77.2,132.8-85.6c61.1-8.4,123.4,6.1,134.8,16.2"/>
	<path class="st10" d="M348.8,1469.9c-27-54.4-29.3-115.8,0-164.8c24.1-40.2,74.7-65,120.9-69.7c37.3-3.8,84,0.6,104.4,9.6"/>
	<path class="st10" d="M718,1378.7c3.8,3.5,6.2,8.2,8.8,13.5c2.9,5.7,4,8.4,7.2,17.8"/>
	<path class="st10" d="M702.1,1389.3c1.2,1.7,4.9,8,6.1,10.6c1.2,2.8,3.1,6.2,4.2,10.6"/>
</g>
<path class="st11" d="M853.3,1977.2c19.7,39.3,112.8,214.1,325.6,291.1c245.9,89.1,456.6-23.1,488.3-40.7"/>
<ellipse transform="matrix(0.9237 -0.383 0.383 0.9237 -706.27 831.9446)" class="st12" cx="1736.1" cy="2189.6" rx="67.9" ry="41.1"/>
</svg>
