<?xml version="1.0" encoding="utf-8"?>
<!-- Generator: Adobe Illustrator 28.2.0, SVG Export Plug-In . SVG Version: 6.00 Build 0)  -->
<svg version="1.1" id="layer" xmlns="http://www.w3.org/2000/svg" xmlns:xlink="http://www.w3.org/1999/xlink" x="0px" y="0px"
	 viewBox="0 0 3000 3000" style="enable-background:new 0 0 3000 3000;" xml:space="preserve">
<style type="text/css">
	.st0{display:none;fill:none;stroke:#000000;stroke-width:50;stroke-miterlimit:10;}
	.st1{fill:none;stroke:#F2F2F2;stroke-width:13.726;stroke-linecap:round;stroke-linejoin:round;stroke-miterlimit:10;}
	.st2{fill:none;stroke:#F2F2F2;stroke-width:10.2433;stroke-miterlimit:10;}
	.st3{fill:#F2F2F2;stroke:#F2F2F2;stroke-width:1.0243;stroke-miterlimit:9.9996;}
	.st4{fill:#F2F2F2;stroke:#F2F2F2;stroke-width:1.0243;stroke-miterlimit:10;}
	.st5{fill:#F2F2F2;stroke:#F2F2F2;stroke-width:0.2049;stroke-linecap:round;stroke-linejoin:round;stroke-miterlimit:10;}
	.st6{enable-background:new    ;}
	.st7{clip-path:url(#SVGID_00000136395647006718389490000017227157439981889665_);}
	.st8{fill:#F2F2F2;}
	.st9{clip-path:url(#SVGID_00000057852847428276598450000014767555741870010502_);}
	.st10{fill:none;stroke:#F2F2F2;stroke-width:10.2433;stroke-linecap:round;stroke-linejoin:round;stroke-miterlimit:10;}
	.st11{display:none;fill:none;stroke:#000000;stroke-width:50;stroke-linecap:round;stroke-linejoin:round;stroke-miterlimit:10;}
	
		.st12{display:none;fill:none;stroke:#000000;stroke-width:49.9978;stroke-linecap:round;stroke-linejoin:round;stroke-miterlimit:9.9996;}
	.st13{display:none;}
	
		.st14{display:inline;fill:none;stroke:#000000;stroke-width:13.6657;stroke-linecap:round;stroke-linejoin:round;stroke-miterlimit:10;}
	.st15{display:inline;fill:none;stroke:#000000;stroke-width:10.1983;stroke-miterlimit:10;}
	.st16{display:inline;stroke:#000000;stroke-width:1.0198;stroke-miterlimit:9.9992;}
	.st17{display:inline;stroke:#000000;stroke-width:1.0199;stroke-miterlimit:10.0012;}
	.st18{display:inline;stroke:#000000;stroke-width:1.0199;stroke-miterlimit:10.0004;}
	.st19{display:inline;stroke:#000000;stroke-width:0.2039;stroke-linecap:round;stroke-linejoin:round;stroke-miterlimit:10;}
	.st20{display:inline;}
	.st21{clip-path:url(#SVGID_00000097497103420858953720000015358425058489430174_);}
	.st22{clip-path:url(#SVGID_00000132808210262919445980000013585431371970293412_);}
	
		.st23{display:inline;fill:none;stroke:#000000;stroke-width:10.1983;stroke-linecap:round;stroke-linejoin:round;stroke-miterlimit:10;}
</style>
<image style="display:none;overflow:visible;enable-background:new    ;" width="1024" height="1024" xlink:href="C426A63B.png"  transform="matrix(3.1975 0 0 3.1975 -88.7223 -136.9989)">
</image>
<path class="st0" d="M1628.4,2361.9c-81.5,0-157.7-11.3-226.6-33.5c-82.7-26.7-153-69-208.9-125.6c-19.5-19.5-10.5-72.9,5.5-152.1
	c4.7-23.2,9-45,11.4-62.6c3.1-23.2,1.2-29.6,0.5-31.1c-3.5-3.4-21.6-9.5-36.1-14.5c-43.2-14.6-115.5-39.2-168.6-92.9
	c-64.4-65.2-84.4-156.4-59.5-271c0.4-1.6,1.1-3.2,2.2-4.4c2.9-3.3,71.3-81,190.6-160c70.1-46.4,143.1-83.3,217.1-109.9
	c92.6-33.2,186.9-50,280.3-50c111,0,222.2,23.8,330.8,70.8c2.8,1.2,4.9,3.6,5.7,6.6l70.3,262.5c1.6,4.4,12.8,36,17.9,78.2
	c7.3,59.6-1.2,111.7-24.6,150.6c-27.5,45.6-74.9,74.2-141,84.9c6.2,35-2.6,63.7-10.5,89.2c-5.8,18.8-11.3,36.6-10.4,55.1
	c0.4,9.3,5.3,26.2,11,45.8c15.8,54.6,39.7,137,7.1,192.4c-15.3,26-41.4,43.3-77.6,51.5C1774.4,2350.9,1709,2361.9,1628.4,2361.9z"/>
<g>
	<path class="st1" d="M472.6,1495.6c0,0,87.9-102.2,205-50.8l14.3,54.2c0,0,19.3,54.5-31.8,61.2c3.3,13.1-3.1,22.6-2.6,32.7
		c0.5,10.2,21,50.4-10.5,57.6c-31.5,7.3-88.9,8.7-124.7-28.1c-6.2-6.3,7.2-44.5,3.8-50.4C522.8,1566.3,458.3,1562.4,472.6,1495.6z"
		/>
	<path class="st2" d="M471.2,1497.6c-0.6,0-1.1-0.2-1.5-0.7c-0.5-0.6-13-15.1-21.6-35.3c-5.1-12-7.7-23.4-7.8-34.2
		c-0.1-13.4,3.8-25.6,11.6-36.2c13.1-22.1,34.5-40.7,60.3-52.4c12.3-5.5,24.9-9.3,37.5-11.1c12.9-1.9,25.2-1.6,36.5,0.7
		c0.8,0.2,1.4,0.8,1.6,1.6c3,15.3,1.8,29.8-3.6,43.1c-4.3,10.6-11.3,20.5-20.8,29.3c-16.1,14.9-33.4,21.6-34.2,21.9
		c-1.1,0.4-2.2-0.1-2.6-1.2c-0.4-1.1,0.1-2.2,1.2-2.7l0,0c0.2-0.1,17.5-6.7,32.9-21.2c20.2-18.8,28-41.4,23.4-67.1
		c-5.7-1.1-11.7-1.6-17.7-1.6c-42.1,0-88.9,25.5-111,62.9c0,0.1-0.1,0.1-0.1,0.2c-13.3,17.9-14.5,40.2-3.5,66.2
		c8.3,19.7,20.8,34.1,20.9,34.3c0.8,0.8,0.7,2.2-0.2,2.9C472.1,1497.4,471.7,1497.6,471.2,1497.6z"/>
	<path class="st2" d="M678.1,1448.7c-0.9,0-1.7-0.6-2-1.5c-0.3-1.1,0.3-2.2,1.4-2.5c0.3-0.1,22.8-6.6,41.3-21.4
		c14.3-11.5,25.2-28.7,30.6-48.5c6.9-24.9-2.9-47.3-9-55.6c-6.6-9-20.3-16.6-37.5-20.8c-20.4-4.9-45.1-4.1-67.7,2.3
		c-22.7,6.5-40.1,17.7-47.6,30.8c-0.6,1-1.8,1.3-2.8,0.7c-1-0.6-1.3-1.8-0.7-2.8c4.2-7.3,10.9-13.9,19.9-19.7
		c8.4-5.3,18.8-9.9,30.1-13.1c23.3-6.6,48.7-7.5,69.8-2.4c18.1,4.4,32.7,12.5,39.9,22.3c4.6,6.2,8.3,15.1,10.4,24.3
		c2.6,11.7,2.3,23.8-0.8,34.9c-5.6,20.7-17,38.7-32,50.7c-19.2,15.3-41.8,21.9-42.8,22.1C678.4,1448.6,678.3,1448.7,678.1,1448.7z"
		/>
	<path class="st2" d="M488.7,1353.1c-0.6,0-1.2-0.2-1.6-0.7c-0.2-0.2-5.1-6-3.6-13.3c1.2-5.7,5.9-10.5,13.9-14.3
		c11.2-5.3,18.7-7.3,24.4-6.4c6.8,1,10.2,6,12.7,10.8c0.5,1,0.1,2.2-0.9,2.8c-1,0.5-2.2,0.1-2.7-0.9c-4.4-8.5-9-13.3-31.7-2.5
		c-6.8,3.2-10.7,7-11.6,11.4c-1.1,5.3,2.6,9.7,2.6,9.8c0.7,0.9,0.7,2.2-0.2,2.9C489.6,1352.9,489.2,1353.1,488.7,1353.1z"/>
	<path class="st2" d="M522.3,1396.5c-0.9,0-1.7-0.6-2-1.5c-11.1-40.8-4.8-55.6-4.6-56.2c0.5-1,1.7-1.5,2.7-1c1,0.5,1.5,1.7,1,2.7
		c0,0.1-1.5,3.7-1.6,11.9c-0.1,7.7,0.9,21.2,6.4,41.5c0.3,1.1-0.3,2.2-1.4,2.5C522.7,1396.5,522.5,1396.5,522.3,1396.5z"/>
	
		<ellipse transform="matrix(0.9993 -3.759677e-02 3.759677e-02 0.9993 -56.0022 25.4236)" class="st3" cx="648" cy="1501.7" rx="25.4" ry="37.3"/>
	
		<ellipse transform="matrix(0.9993 -3.666589e-02 3.666589e-02 0.9993 -54.7784 21.5273)" class="st3" cx="559.5" cy="1504.2" rx="33.3" ry="41.6"/>
	
		<ellipse transform="matrix(0.7925 -0.6098 0.6098 0.7925 -811.901 697.0312)" class="st3" cx="618.5" cy="1541.7" rx="7.2" ry="13.6"/>
	
		<ellipse transform="matrix(0.4526 -0.8917 0.8917 0.4526 -1043.0708 1386.65)" class="st4" cx="607.9" cy="1542.9" rx="13.8" ry="7"/>
	<path class="st5" d="M689.5,1521.9c0,0,0.6,24.2-26,29.1c-11.5,2.3-11.3,11.3-11.3,11.3s1.8,26.4-7.2,31.3
		c-7.4,4.1-8.3-4.5-8.5-5.2c-0.4-0.9-2.3-19.6-6.4-8.6c-1.6,4-0.8,16.5-8.1,16.9c-7.3,0.4-7.4-14.7-7.4-14.7s-2-13.3-5.6,0
		c-1.3,5.3-3.2,20.8-11.7,12.9c-3.1-3.3-6.2-30.2-11.2-11.5c-3.1,12.7-10.6,19.2-16.5,5.6c-2.6-5.8-2.4-27.4-10.2-31.7
		c-7.8-4.3-24.7-3.8-34.6-18.3c-2.9-5.1-5.4-13.4-6.8-17.2c-0.2-0.6-0.3-0.9-0.6-1.5c-0.2-0.4-0.9-2.2-1.7-2.5
		c-0.5-0.2-1,0.4-0.8,3.1c0.4,6.2,2.3,18.5,10.8,29.4c16.5,16.6,29.9,3.7,31,30c3.4,27,21.6,25.4,21.6,25.4s8.7-0.4,11.6-5.1
		c0,0,11.3,10.3,23.1-0.4c0,0,8.9,8.9,19.7-0.3c0,0,8.1,6.6,16.2,0.1c0.1,0,2.9-2.1,4.4,3.3c1.4,5.5,6.9-33.1,6.9-33.1l3.9-9.8
		l18.6-9.5l10-19.7L689.5,1521.9z"/>
	<g>
		<g>
			<g class="st6">
				<g>
					<defs>
						<polygon id="SVGID_1_" points="415.3,1586.8 376.5,1501.1 444.3,1490.2 483,1575.9 						"/>
					</defs>
					<clipPath id="SVGID_00000022542777670520647130000016972341590392098490_">
						<use xlink:href="#SVGID_1_"  style="overflow:visible;"/>
					</clipPath>
					<g style="clip-path:url(#SVGID_00000022542777670520647130000016972341590392098490_);">
						<g>
							<g>
								<g>
									<path class="st8" d="M393.3,1517.3c-0.5-1.2-0.7-2.3-0.7-3.4c0-1.9,0.6-3.5,1.7-4.9c0.6-0.7,1.3-1.2,2.1-1.6
										s1.8-0.7,2.8-0.9l29.9-4.8c1.4-0.2,2.8-0.2,4.3,0.1c2.1,0.4,4.3,1.4,6,2.8c0.9,0.7,1.7,1.5,2.4,2.3
										c0.6,0.7,1.1,1.4,1.5,2.2c1.9,0.4,3.6,1.7,4.4,3.4c0.8,1.7,0.4,3.4-0.9,4.3l1.7,3.7c1.9,0.4,3.6,1.7,4.4,3.4
										c0.8,1.7,0.4,3.4-0.9,4.3l14,30.9c0.6,1.3,0.9,2.7,0.9,3.9c0,1.9-0.6,3.5-1.7,4.9c-0.6,0.7-1.3,1.2-2.1,1.6
										c-0.8,0.4-1.8,0.7-2.8,0.9l-29.9,4.8c-1.4,0.2-2.8,0.2-4.3-0.1c-2.1-0.5-4.3-1.4-6-2.8c-0.9-0.7-1.7-1.5-2.4-2.3
										c-0.7-0.9-1.3-1.8-1.8-2.8l-14-31c-1.8-0.5-3.4-1.7-4.1-3.4c-0.8-1.6-0.4-3.2,0.7-4.1l-1.8-3.9c-1.8-0.5-3.4-1.7-4.1-3.4
										C391.8,1519.8,392.2,1518.2,393.3,1517.3 M425.3,1493.2l-29.9,4.8c-2.6,0.4-4.9,1.3-6.7,2.6c-2.8,1.9-4.6,4.7-5.4,7.9
										c-0.4,1.6-0.4,3.3-0.2,5.1c0.2,1.8,0.7,3.7,1.6,5.5l22.4,49.5c1.1,2.5,2.7,4.8,4.7,6.8c2.9,3,6.6,5.4,10.5,6.9
										c2,0.7,4,1.2,6,1.5c2,0.2,4,0.2,6-0.1l29.9-4.8c2.6-0.4,4.9-1.3,6.7-2.6c2.8-1.9,4.6-4.7,5.4-7.9c0.4-1.6,0.4-3.3,0.2-5.1
										c-0.2-1.8-0.7-3.7-1.6-5.5l-22.4-49.5c-1.1-2.5-2.7-4.8-4.7-6.8c-2.9-3-6.6-5.4-10.5-6.9c-2-0.7-4-1.2-6-1.5
										C429.3,1492.9,427.3,1492.9,425.3,1493.2"/>
									<path class="st8" d="M395,1516.5c-0.7,0.1-1.3,0.4-1.8,0.8c-1.1,0.9-1.5,2.5-0.7,4.2c0.8,1.6,2.4,2.9,4.1,3.4
										c0.7,0.2,1.5,0.2,2.2,0.1c15.5-2.5,31-5,46.4-7.4c0.6-0.1,1.2-0.3,1.6-0.6c1.3-0.9,1.7-2.6,0.9-4.3
										c-0.8-1.7-2.6-3.1-4.4-3.4c-0.6-0.1-1.3-0.2-1.9-0.1C426,1511.6,410.5,1514,395,1516.5"/>
									<path class="st8" d="M400.2,1527.9c-0.7,0.1-1.3,0.4-1.8,0.8c-1.1,0.9-1.5,2.5-0.7,4.1c0.8,1.6,2.4,2.9,4.1,3.4
										c0.7,0.2,1.5,0.2,2.2,0.1c15.5-2.5,31-5,46.4-7.4c0.6-0.1,1.2-0.3,1.6-0.6c1.3-0.9,1.7-2.6,0.9-4.3s-2.5-3-4.4-3.4
										c-0.6-0.1-1.3-0.2-1.9-0.1C431.2,1523,415.7,1525.5,400.2,1527.9"/>
									<path class="st8" d="M430.4,1539.5c-1.5,0.2-2.8,0.8-3.9,1.5c-1.6,1.1-2.7,2.7-3.1,4.6c-0.2,0.9-0.3,1.9-0.1,3
										s0.4,2.1,0.9,3.2c0.7,1.4,1.6,2.8,2.7,4c1.7,1.8,3.8,3.2,6.1,4c1.1,0.4,2.3,0.7,3.5,0.9c1.2,0.1,2.4,0.1,3.5,0
										c1.5-0.2,2.8-0.8,3.9-1.5c1.6-1.1,2.7-2.7,3.1-4.6c0.2-0.9,0.3-1.9,0.1-3c-0.1-1.1-0.4-2.1-0.9-3.2l-3.1,0.5l-3.1,0.5
										c0.3,0.7,0.4,1.3,0.4,1.9c0,0.9-0.3,1.7-0.8,2.3c-0.3,0.3-0.6,0.6-1,0.8c-0.4,0.2-0.8,0.4-1.4,0.4
										c-0.7,0.1-1.4,0.1-2.1-0.1c-1-0.2-2.1-0.7-2.9-1.3c-0.4-0.3-0.8-0.7-1.2-1.1c-0.3-0.4-0.6-0.9-0.9-1.4
										c-0.3-0.7-0.4-1.3-0.4-1.9c0-0.9,0.3-1.7,0.8-2.3c0.3-0.3,0.6-0.6,1-0.8c0.4-0.2,0.8-0.4,1.4-0.4c0.7-0.1,1.4-0.1,2.1,0.1
										c1,0.2,2.1,0.7,2.9,1.3c0.4,0.3,0.8,0.7,1.2,1.1c0.3,0.4,0.6,0.9,0.9,1.4l3.1-0.5l3.1-0.5c-0.7-1.4-1.6-2.8-2.7-4
										c-1.7-1.8-3.8-3.2-6.1-4c-1.1-0.4-2.3-0.7-3.5-0.9C432.7,1539.3,431.5,1539.3,430.4,1539.5"/>
								</g>
							</g>
						</g>
					</g>
				</g>
			</g>
		</g>
	</g>
	<g>
		<g>
			<g class="st6">
				<g>
					<defs>
						<polygon id="SVGID_00000114789531911783434430000006909106290870402972_" points="718.7,1540.5 678.1,1450.7 753.8,1438.6 
							794.4,1528.3 						"/>
					</defs>
					<clipPath id="SVGID_00000078040177169933960910000004694567113225057675_">
						<use xlink:href="#SVGID_00000114789531911783434430000006909106290870402972_"  style="overflow:visible;"/>
					</clipPath>
					<g style="clip-path:url(#SVGID_00000078040177169933960910000004694567113225057675_);">
						<g>
							<g>
								<g>
									<path class="st8" d="M705.3,1446.3c-2.3,0.4-4.3,1.1-6,2.2c-2.6,1.6-4.5,3.9-5.5,6.6c-0.5,1.4-0.8,2.9-0.9,4.4
										c0,1.6,0.1,3.2,0.6,4.9l13.7,50.1c0.3,1,0.7,2,1.1,3c1,2.2,2.4,4.2,4,6.1c2.5,2.8,5.6,5.1,9,6.7c1.7,0.8,3.5,1.4,5.3,1.9
										s3.7,0.7,5.6,0.7l31.6-0.1c1.1,0,2.2-0.1,3.2-0.2c2.3-0.4,4.3-1.1,6-2.2c2.6-1.6,4.5-3.9,5.5-6.6c0.5-1.4,0.8-2.9,0.9-4.4
										c0-1.6-0.1-3.2-0.6-4.9l-13.7-50.1c-0.3-1-0.7-2-1.1-3c-1-2.2-2.4-4.2-4-6.1c-2.5-2.8-5.6-5.1-9-6.7
										c-1.7-0.8-3.5-1.4-5.4-1.9c-1.8-0.4-3.7-0.7-5.6-0.7l1.2,4.3l1.2,4.3c1.3,0,2.7,0.2,3.9,0.6c1.9,0.6,3.7,1.6,5.3,2.9
										c1.5,1.3,2.8,2.9,3.6,4.6c0.1,0.3,0.3,0.7,0.4,1c1.8,0.7,3.4,2.2,3.9,3.9c0.5,1.8-0.3,3.3-1.7,3.9l1,3.7
										c1.8,0.7,3.4,2.2,3.9,3.9c0.5,1.8-0.3,3.3-1.7,3.9l8.5,31.3c0.3,1.2,0.4,2.4,0.3,3.5c-0.2,1.6-1,3-2.1,4.1
										c-1.1,1.1-2.6,1.8-4.5,2.1c-0.5,0.1-1.1,0.1-1.7,0.1l-31.6,0.1c-1.3,0-2.7-0.2-3.9-0.6c-1.9-0.6-3.7-1.6-5.3-2.9
										c-1.5-1.3-2.8-2.9-3.6-4.6c-0.2-0.5-0.4-1.1-0.6-1.6l-8.6-31.4c-1.7-0.7-3.2-2.1-3.6-3.8c-0.4-1.7,0.2-3.1,1.5-3.8
										l-1.1-3.9c-1.7-0.7-3.1-2.1-3.6-3.8c-0.4-1.7,0.2-3.1,1.5-3.8c-0.2-1.1-0.3-2-0.1-3c0.2-1.6,1-3,2.1-4.1
										c1.1-1.1,2.6-1.8,4.5-2.1c0.5-0.1,1.1-0.1,1.7-0.1l31.6-0.1l-1.2-4.3l-1.2-4.3l-31.6,0.1
										C707.4,1446.1,706.4,1446.2,705.3,1446.3"/>
									<path class="st8" d="M704,1463.6c-0.4,0.1-0.9,0.2-1.2,0.4c-1.3,0.7-2,2.1-1.5,3.8c0.4,1.7,1.9,3.1,3.6,3.8
										c0.7,0.3,1.5,0.5,2.2,0.5c16.4,0,32.7-0.1,49.1-0.1c0.3,0,0.5,0,0.8-0.1c0.4-0.1,0.7-0.2,1-0.3c1.5-0.7,2.2-2.2,1.7-3.9
										c-0.5-1.8-2.1-3.3-3.9-3.9c-0.6-0.2-1.3-0.4-1.9-0.4c-16.4,0-32.7,0.1-49.1,0.1C704.4,1463.5,704.2,1463.6,704,1463.6"/>
									<path class="st8" d="M707.1,1475.2c-0.4,0.1-0.9,0.2-1.2,0.4c-1.3,0.7-2,2.1-1.5,3.8s1.9,3.1,3.6,3.8
										c0.7,0.3,1.5,0.5,2.2,0.5c16.4,0,32.7-0.1,49.1-0.1c0.3,0,0.5,0,0.8-0.1c0.4-0.1,0.7-0.2,1-0.3c1.5-0.7,2.2-2.2,1.7-3.9
										s-2-3.3-3.9-3.9c-0.6-0.2-1.3-0.4-2-0.4c-16.4,0-32.7,0.1-49.1,0.1C707.6,1475.1,707.3,1475.1,707.1,1475.2"/>
									<path class="st8" d="M744.7,1501.3L744.7,1501.3L744.7,1501.3L744.7,1501.3 M741.7,1506c-0.3,0-0.5,0.1-0.8,0.1
										c-0.7,0-1.3-0.1-1.9-0.3c-0.9-0.3-1.8-0.8-2.5-1.4c-0.7-0.6-1.3-1.4-1.7-2.2c-0.1-0.2-0.2-0.5-0.3-0.8
										c-0.2-0.6-0.2-1.2-0.1-1.7c0.1-0.8,0.4-1.5,1-2c0.5-0.5,1.3-0.9,2.2-1c0.3,0,0.5-0.1,0.8-0.1c0.7,0,1.3,0.1,1.9,0.3
										c0.9,0.3,1.8,0.8,2.5,1.4c0.7,0.6,1.3,1.4,1.7,2.2c0.1,0.2,0.2,0.5,0.3,0.8l0,0c0.2,0.6,0.2,1.2,0.1,1.7
										c-0.1,0.8-0.4,1.5-1,2C743.3,1505.5,742.6,1505.8,741.7,1506 M734.7,1490.7c-1.3,0.2-2.5,0.6-3.5,1.3
										c-1.5,0.9-2.6,2.2-3.2,3.9c-0.6,1.6-0.7,3.5-0.1,5.5l0,0c0.2,0.6,0.4,1.2,0.6,1.8c0.6,1.3,1.4,2.5,2.3,3.5
										c1.4,1.6,3.3,3,5.3,3.9c2,0.9,4.2,1.5,6.3,1.5c0.7,0,1.3-0.1,1.9-0.1c0,0,0,0,0,0c1.3-0.2,2.5-0.6,3.5-1.3
										c1.5-0.9,2.6-2.2,3.2-3.9c0.6-1.6,0.7-3.5,0.1-5.5l0,0c-0.2-0.6-0.4-1.2-0.6-1.8c-0.6-1.3-1.4-2.5-2.3-3.5
										c-1.4-1.6-3.3-3-5.3-3.9c-2-0.9-4.2-1.5-6.3-1.5C736,1490.6,735.4,1490.6,734.7,1490.7
										C734.8,1490.7,734.7,1490.7,734.7,1490.7"/>
								</g>
							</g>
						</g>
					</g>
				</g>
			</g>
		</g>
	</g>
	<path class="st10" d="M403,1497.6c-22-44.8-23.9-98.8,0-139.1c23.9-40.3,58.3-63.7,108-70.6s100.4,5,109.7,13.3"/>
	<path class="st10" d="M420.7,1497.6c-22-44.8-23.9-95.5,0-135.9c19.6-33.2,60.7-53.6,98.4-57.5c30.3-3.1,68.4,0.5,84.9,7.9"/>
	<path class="st10" d="M721,1422.5c3.1,2.9,5,6.8,7.1,11.1c2.3,4.7,3.2,6.9,5.9,14.6"/>
	<path class="st10" d="M708.2,1431.2c1,1.4,3.9,6.6,4.9,8.7c1,2.3,2.5,5.1,3.4,8.7"/>
</g>
<path class="st11" d="M853.3,1977.2c19.7,39.3,112.8,214.1,325.6,291.1c245.9,89.1,456.6-23.1,488.3-40.7"/>
<ellipse transform="matrix(0.9237 -0.383 0.383 0.9237 -706.27 831.9446)" class="st12" cx="1736.1" cy="2189.6" rx="67.9" ry="41.1"/>
<g>
	
		<image style="overflow:visible;" width="1976" height="201" xlink:href="C426A639.png"  transform="matrix(1 0 0 1 833.9188 1405.9188)">
	</image>
	<g>
		<g>
			<path class="st8" d="M2506.7,1583.3c-1.7-49.9-3.4-98.7-5-147.7c8.8-3.9,17.2-6,26.1-6.2c13-0.2,26-0.9,38.9-0.8
				c4.2,0,8.7,1.3,12.5,3c5.6,2.5,10.7,6,16.2,8.9c11.3,6,17.5,15.7,20.8,27.8c4.2,15.2,3.3,29.8-0.2,45.4
				c-4.2,19.3-13.3,34.3-27,48.1c-10.5,10.6-22.4,16.1-36.7,17.9c-8.1,1-16.2,2.8-24.3,3.5
				C2521.3,1583.7,2514.5,1583.3,2506.7,1583.3z"/>
			<path class="st8" d="M2687.6,1515.4c-0.5-11.6-1.2-23.2-1.5-34.9c-0.4-13.4,7.6-22.1,17.6-29.4c1-0.7,2.5-0.9,3.9-1.1
				c14.6-1.5,29.3-2.6,43.9-4.7c10.9-1.5,20.2,3,27.2,9.4c7.8,7.2,14.6,16.5,15.6,28.1c2,22.1,3.6,44.3,5.6,66.4
				c0.8,8.7-2.8,16.2-6.6,23.3c-2.7,5.1-8.7,6.2-14.3,6.7c-10.6,0.9-21.1,1.7-31.7,2.5c-3.1,0.2-6.3-0.1-9.2,0.7
				c-14.5,4.2-26.8-0.9-38.6-8.7c-7.7-5.1-9.1-13.3-9.8-21.5c-0.9-12.3-1.2-24.6-1.7-36.9
				C2687.8,1515.4,2687.7,1515.4,2687.6,1515.4z"/>
			<path class="st8" d="M1912.5,1520.6c-0.7,20.3-1.3,40.6-2,61.4c-9.7,3.1-18.8,0.9-28.8,1.4c-2-45.4-3-90.3,1.2-136.5
				c12.1,0.6,23.6,1.1,35.1,2.1c1.8,0.2,4,2.4,5.1,4.3c2.3,3.8,4.2,7.8,6,11.9c8.6,19.3,17.2,38.6,26.7,57.9
				c3.4-23.4,1.4-47,3.2-70.6c9.6,0,18.7,0,27.5,0c2.8,9.1,3.2,116.4,0.5,129.3c-12.6,1.4-25.4,0.5-38.5-0.4
				C1940.8,1558.4,1925.8,1540.2,1912.5,1520.6z"/>
			<path class="st8" d="M1657.4,1522.8c0.5-23.4,0.9-46.8,1.4-70.5c9.8,0,18.9,0,27.6,0c2.9,8.9,3.4,115.2,0.7,129.3
				c-12.6,1.5-25.3,0.6-38.5-0.3c-7.1-22.1-21.8-39.6-33-59c-0.4-0.8-1.4-1.2-3-2.6c-0.7,21.2-1.3,41.5-2,62.2
				c-9.6,3.4-18.7,1-28.9,1.5c-1.5-45.3-2.5-90.2,1.2-136.4c12.2,0.6,23.7,1,35.1,2c2,0.2,4.5,2.9,5.6,5.1c4.2,8.2,8,16.6,11.8,25
				c5.6,12.5,11.1,25,16.7,37.5c1,2.3,2.4,4.4,3.6,6.7C1656.2,1523.1,1656.8,1523,1657.4,1522.8z"/>
			<path class="st8" d="M1547.5,1514.5c-10.7,0.8-20.4,1.5-30.4,2.3c0,9.7,0,18.7,0,28.7c16.7,0,32.6,0,49.4,0
				c1.3,9.8,2.5,18.7,3.8,28c-32.9,3.9-64.4,7.7-96.8,11.6c-2-52.8-4-105.9-6-159.9c28.1,0,55.9,0.5,84.9,3.9
				c-1.3,9.5-2.4,18.1-3.7,27.7c-10.9,0.6-21.3,1.2-32.4,1.8c0,7.9,0,14.9,0,23.2c8,0,15.6,0,23.3,0
				C1544.1,1492.6,1546,1502.8,1547.5,1514.5z"/>
			<path class="st8" d="M2048.8,1482.2c8.4,0,15.8,0,24.4,0c2.5,10.6,4.9,20.7,7.6,32.3c-11.3,0.9-21.1,1.6-32.2,2.4
				c0.4,9.5,0.8,18.5,1.3,28.7c16.6,0,32.5,0,49.1,0c1.3,9.7,2.5,18.3,3.8,27.9c-32.8,3.9-64.5,7.7-96.8,11.6
				c-2-52.9-3.9-105.7-5.9-159.9c27.8,0,55.9,0.3,85.1,4c-1.4,9.5-2.6,18.2-4,27.7c-11,0.6-21.4,1.1-32.4,1.7
				C2048.8,1466.6,2048.8,1473.6,2048.8,1482.2z"/>
			<path class="st8" d="M944.3,1444.5c9.7,0,19.1,0,29.1,0c-0.6,18.9-1.1,37.5-1.8,58.3c7.2-6.3,12.7-10.7,17.8-15.6
				c12.1-11.8,26.2-20.8,40.4-29.8c4.8-3,9.1-4,14.3-1.5c3.1,1.4,6.6,1.9,9.7,3.2c5,2,5.9,5.4,2.4,9.4c-1.8,2.1-4,3.7-6.1,5.4
				c-14.3,11.6-28.7,23.2-44,35.5c1.8,2.8,3.7,5.9,5.7,8.9c10.5,16,21,32,31.4,48.1c1.8,2.9,3.5,6,4.5,9.2c1.1,3.4,0.8,6.9-3.5,8.4
				c-12.2,4.3-23.9,10-37.6,12.3c-12.7-18.9-16.5-42.2-30.1-60.5c-5.1,0.9-4.1,4.7-4.3,7.9c-0.8,11.3-1.5,22.5-2.4,33.8
				c-0.1,1.3-0.6,2.6-1,4.4c-9.8,2.4-19.5,1.2-29.5,0.4C941,1536.2,942.6,1490.6,944.3,1444.5z"/>
			<path class="st8" d="M2200.3,1423.6c22.4-4.5,44-8.9,66.5-13.4c2.6,8.7,5,16.5,7.4,24.5c-9.3,5.8-17.8,11.4-26.6,16.5
				c-5.6,3.2-9.6,7.2-11,13.8c-1.1,5.3-3.4,10.4-5.4,16.4c15.2,13,32,24,49.3,36.1c-1.4,6.7-2.8,13.6-4.2,20.6
				c-1.6,7.7-3.4,15.4-4.6,23.1c-0.9,5.6-3.4,9.2-8.8,11.3c-8,3.1-15.7,6.9-23.7,9.9c-3,1.1-6.8,1.6-9.9,1
				c-15-3.2-29.9-6.9-45.3-10.5c0-8.3,0-15.7,0-24.1c14.5-0.6,29.1-1.1,43.4-1.7c3.3-6.9,1.6-11.5-3.4-16
				c-10.1-9.3-19.5-19.2-29.4-28.6c-5.7-5.5-7-11.4-5.1-19.4c3.6-15.3,5.9-30.9,8.7-46.3C2198.7,1432.8,2199.4,1428.8,2200.3,1423.6
				z"/>
			<path class="st8" d="M848.1,1423.6c21.8-4.4,43.2-8.8,65.9-13.4c2.7,8.4,5.1,16.3,7.7,24.4c-9.9,6.2-18.7,12.1-27.8,17.3
				c-5.1,2.9-8.4,6.7-9.6,12.4c-0.2,1-0.5,2-0.8,3c-4.9,14.9-5,15,8,24.5c11.6,8.5,23.3,16.7,35.6,25.5c-0.1,2.2,0,4.9-0.5,7.5
				c-2.4,12-5.4,24-7.4,36.1c-1,6.2-3.9,9.8-9.5,12c-7.6,3-15.1,6.5-22.7,9.4c-2.8,1-6.1,1.9-8.9,1.3c-15.6-3.3-31.2-7.1-47-10.8
				c0-8.4,0-15.4,0-23.9c14.5-0.6,29.3-1.2,43.5-1.8c3.5-6.7,2.1-11.1-2.6-15.5c-10.7-10-20.9-20.6-31.4-30.9
				c-3.7-3.6-5.4-7.7-4.4-12.9C839.9,1466.8,843.9,1445.7,848.1,1423.6z"/>
			<path class="st8" d="M1766.5,1537.2c-0.5-10.1-0.9-19.6-1.5-30.2c11.3-1.7,22.1-1.9,32.9-1.5c4.3,0.2,15.8,13.5,16.1,18.6
				c0.6,10.2,1.3,20.3-1.5,30.6c-4.6,17-16,26.1-32.4,28.7c-16.5,2.6-32.8,0.6-48.2-6.1c-12.9-5.6-21.8-15-27.1-27.9
				c-14.7-36-2.1-83,28.7-106.5c9.5-7.3,31.2-12.6,44.3-10.6c3.9,8.2,8,16.8,12.5,26.2c-3.7,1.9-6.8,3.7-10.1,5.1
				c-14.4,6.3-26.3,15.8-35.9,28.2c-2.7,3.5-5.2,7.2-7.2,11.2c-7.2,14.6-4.4,31,7,42.6c4.3,4.3,9.5,7,15.5,6.8
				c6.3-0.1,12.6-1.2,19.7-2c-0.4-4.7-0.8-7.9-1.1-11.5C1774.3,1538.3,1771,1537.8,1766.5,1537.2z"/>
			<path class="st8" d="M1071,1454.7c13.7,0.8,26.5,1.5,40.1,2.2c0.3,5.4,0.9,10.1,0.7,14.8c-1.3,22.5-2.8,45-4.1,67.5
				c-0.2,3.6-0.1,7.7,1.4,10.9c4.1,8.8,18.9,12.7,27.3,7.4c1.8-1.1,3.3-3.7,3.7-5.8c1.5-8.4,3.5-16.8,3.7-25.2
				c0.4-16.4,0.7-32.8-2.9-49c-1.1-5.2-0.2-10.8-0.2-17.5c9.5-1.2,19.1-2.4,29.9-3.7c1.7,10.7,3.5,19.9,4.5,29.3
				c1.1,10.2,1.1,20.5,2.2,30.7c1.5,15-1.9,29.4-6.9,43.2c-4.7,13-14.2,21.6-28.9,22.4c-12.3,0.7-24.5,1.7-36.8,1.4
				c-16-0.4-24.3-7.8-28.3-23.1c-6-23-8-46.4-7.2-70.1C1069.5,1478.5,1070.3,1467,1071,1454.7z"/>
			<path class="st8" d="M2385.5,1454.7c13.9,0.8,26.4,1.4,40,2.2c0.3,4.3,1.1,8.3,0.9,12.2c-1.1,20.5-2.4,40.9-3.6,61.4
				c-0.2,4.1-0.7,8.2-0.8,12.3c-0.1,10.4,6.2,16.7,16.3,16.5c0.3,0,0.7,0,1-0.1c13.3-0.4,16-2.7,17.5-15.9
				c2.4-21.1,2.7-42.2-1.1-63.3c-1.1-6-1-12.2-1.5-18.6c9.7-4.4,19.6-3.7,29.6-4.8c4.8,10.4,4.7,21.1,5.9,31.4
				c1,8.1,0.9,16.4,1.8,24.5c1.9,16-1.7,31.3-6.3,46.3c-3.3,10.8-16.9,23.3-29.8,23c-11.9-0.2-23.9,1.5-35.8,1.2
				c-16.6-0.4-24.8-7.6-29-23.6c-6-23.4-8-47.1-7-71.2C2384.2,1477.6,2384.9,1466.7,2385.5,1454.7z"/>
			<path class="st8" d="M1384.3,1547.1c0,11.1,0.1,21.3-0.1,31.5c-0.1,3.4-0.8,6.7-1.3,11.1c-30.1-2.3-59.6-4.5-89.9-6.7
				c0-47.9,0-96.2,0-145.5c14.4,0,28.5,0,43.8,0c-0.4,18.2-1,36.2-1.2,54.2c-0.2,17.7,0,35.5,0,53.4
				C1352.5,1548,1368,1549.4,1384.3,1547.1z"/>
			<path class="st8" d="M1231.6,1546.4c16.3,0.7,31.9,1.4,48.5,2.1c0.7,12.8,0,26.6-1.9,41.3c-30.3-2.3-59.9-4.5-90-6.8
				c0-47.9,0-95.9,0-145.3c6.7-0.2,13.7-0.6,20.7-0.7c7.2-0.1,14.3,0,23,0c1,18.1-1.7,36-1.2,53.9
				C1231.3,1509,1231.3,1527.1,1231.6,1546.4z"/>
			<path class="st8" d="M2369.7,1438.1c1.1,7.7,2.3,16,3.6,24.5c-9.4,4.5-18.9,0.4-28.3,3c0,7.9-0.4,15.7,0.1,23.4
				c1.8,27,2,54-0.9,81c-0.9,8.3-0.7,8.6-8.6,10.1c-7.6,1.4-15.4,2.2-23.9,3.3c-2-39.7-4-78.4-5.9-118c-10.1,0-19.2,0-29.4,0
				c0.9-11,1.6-20.9,2.4-30.3C2309.1,1436,2338.4,1437,2369.7,1438.1z"/>
			<path class="st8" d="M2632.9,1458.2c14,1,26.2,1.9,39.2,2.9c4.6,40,1,79.2,1.1,118.1c-12.3,6.8-24.5,5.1-38.2,3.9
				C2634.3,1541.8,2633.6,1500.7,2632.9,1458.2z"/>
			<path class="st8" d="M1827.7,1458.2c14.2,1.1,26.4,2,39.2,2.9c4.7,40.1,0.9,79.3,1.2,117.9c-12.6,7-24.8,5.2-38.3,4
				C1829.1,1541.7,1828.4,1500.6,1827.7,1458.2z"/>
			<path class="st8" d="M1825.2,1412.3c14.2-3.1,26.3-5.8,39.7-8.7c2,11.7,3.8,22,5.8,33c-13.8,5.9-27.3,8.7-41.8,12.3
				C1827.6,1436.6,1826.5,1425,1825.2,1412.3z"/>
			<path class="st8" d="M2634.1,1449.3c-1.3-13-2.5-24.1-3.7-35.7c12.7-5.3,25.5-6.9,39.5-9.8c2.1,11.3,4,21.8,6.2,33.7
				C2661.6,1441.5,2648.3,1445.3,2634.1,1449.3z"/>
		</g>
	</g>
</g>
<g class="st13">
	<path class="st14" d="M472.6,1495.5c0,0,87.9-101.3,204.9-50.4l14.3,53.8c0,0,19.4,54-31.7,60.6c3.3,13-3.1,22.4-2.6,32.4
		c0.5,10.1,21,49.9-10.5,57.1c-31.6,7.2-88.8,8.7-124.7-27.9c-6.2-6.2,7.2-44.1,3.8-49.9C522.8,1565.6,458.3,1561.7,472.6,1495.5z"
		/>
	<path class="st15" d="M471.2,1497.6c-0.6,0-1.1-0.2-1.5-0.7c-0.6-0.6-13-15-21.6-35c-5-11.9-7.6-23.2-7.7-33.8
		c-0.1-13.3,3.8-25.4,11.6-35.9c13.1-21.9,34.5-40.4,60.3-52c12.3-5.5,24.9-9.2,37.5-11c12.9-1.9,25.1-1.6,36.4,0.7
		c0.8,0.2,1.5,0.8,1.6,1.6c3,15.2,1.8,29.6-3.7,42.7c-4.3,10.5-11.3,20.3-20.8,29c-16,14.8-33.4,21.4-34.2,21.7
		c-1.1,0.4-2.2-0.2-2.6-1.2c-0.4-1.1,0.2-2.2,1.2-2.6l0,0c0.2-0.1,17.5-6.7,32.9-21c20.2-18.6,28.1-41,23.3-66.5
		c-5.8-1.1-11.7-1.6-17.7-1.6c-42.1,0-88.9,25.3-111,62.4c-0.1,0.1-0.1,0.2-0.2,0.2c-13.3,17.8-14.5,39.9-3.5,65.6
		c8.3,19.5,20.8,33.8,20.9,34c0.7,0.8,0.7,2.1-0.2,2.9C472.1,1497.4,471.7,1497.6,471.2,1497.6z"/>
	<path class="st15" d="M528.6,1423c0,0,70.2-26.4,57.4-91.2c-44.9-9.2-104.9,15.9-132.2,61.5c-33.3,44.5,17.5,102.3,17.5,102.3"/>
	<path class="st15" d="M678.1,1449.1c-0.9,0-1.7-0.6-2-1.5c-0.3-1.1,0.3-2.2,1.4-2.5c0.2-0.1,22.9-6.5,41.3-21.3
		c14.3-11.4,25.2-28.4,30.6-48.1c6.9-24.7-2.8-46.8-9-55.1c-6.7-9-20.3-16.4-37.5-20.6c-20.4-4.9-45.2-4.1-67.7,2.3
		c-22.7,6.4-40.1,17.6-47.6,30.6c-0.6,1-1.8,1.3-2.8,0.7c-1-0.6-1.3-1.8-0.7-2.8c4.1-7.2,10.9-13.7,19.9-19.5
		c8.4-5.3,18.8-9.8,30-13c23.3-6.5,48.7-7.4,69.8-2.4c18.1,4.3,32.6,12.4,39.9,22.2c4.6,6.2,8.4,15,10.4,24.1
		c2.6,11.6,2.4,23.5-0.7,34.6c-5.6,20.5-17,38.3-32,50.3c-19.2,15.2-41.8,21.7-42.8,22C678.4,1449,678.2,1449.1,678.1,1449.1z"/>
	<path class="st15" d="M488.7,1354.3c-0.6,0-1.2-0.2-1.6-0.7c-0.2-0.2-5.1-6-3.6-13.2c1.2-5.6,5.9-10.4,13.8-14.1
		c11.2-5.2,18.7-7.2,24.3-6.4c6.8,1,10.3,6,12.7,10.7c0.6,1,0.2,2.2-0.9,2.8c-1,0.6-2.2,0.2-2.8-0.9c-4.4-8.4-8.9-13.2-31.7-2.5
		c-6.8,3.2-10.7,6.9-11.6,11.3c-1.1,5.2,2.6,9.6,2.7,9.6c0.7,0.9,0.7,2.1-0.2,2.9C489.6,1354.1,489.2,1354.3,488.7,1354.3z"/>
	<path class="st15" d="M488.1,1353.7c0,0-11.7-14.3,10.3-23.9c22-9.6,28.9-6.8,34.2,4.3"/>
	<path class="st15" d="M522.3,1397.3c-0.9,0-1.7-0.6-2-1.6c-11.1-40.4-4.9-55.1-4.6-55.7c0.5-1.1,1.7-1.5,2.7-1.1
		c1.1,0.5,1.5,1.6,1.1,2.7c0,0.1-1.5,3.6-1.6,11.9c-0.2,7.6,0.9,21,6.4,41.2c0.3,1.1-0.3,2.2-1.5,2.5
		C522.7,1397.3,522.5,1397.3,522.3,1397.3z"/>
	<path class="st15" d="M517.7,1338.9c0,0-6.3,14.2,4.6,54.4"/>
	
		<ellipse transform="matrix(0.9993 -3.849544e-02 3.849544e-02 0.9993 -57.3241 26.0567)" class="st16" cx="648" cy="1501.6" rx="25.4" ry="36.9"/>
	
		<ellipse transform="matrix(0.9993 -3.814450e-02 3.814450e-02 0.9993 -56.9638 22.4377)" class="st16" cx="559.5" cy="1504" rx="33.3" ry="41.3"/>
	
		<ellipse transform="matrix(0.8011 -0.5985 0.5985 0.8011 -799.5156 676.3085)" class="st17" cx="617.9" cy="1541.2" rx="7" ry="13.3"/>
	
		<ellipse transform="matrix(0.4425 -0.8968 0.8968 0.4425 -1044.4373 1404.8229)" class="st18" cx="607.6" cy="1542.4" rx="13.5" ry="6.8"/>
	<path class="st19" d="M689.6,1521.6c0,0,0.7,24-26,28.8c-11.5,2.3-11.2,11.2-11.2,11.2s1.8,26.2-7.2,31.1c-7.4,4-8.4-4.5-8.5-5.1
		c-0.4-0.9-2.3-19.4-6.3-8.5c-1.6,3.9-0.7,16.3-8.1,16.8c-7.3,0.4-7.4-14.6-7.4-14.6s-2-13.2-5.6,0c-1.3,5.2-3.2,20.6-11.7,12.8
		c-3.1-3.4-6.2-30-11.1-11.4c-3.2,12.6-10.6,19-16.4,5.6c-2.6-5.7-2.4-27.2-10.2-31.5s-24.7-3.8-34.6-18.1c-2.9-5.1-5.5-13.2-6.8-17
		c-0.2-0.7-0.3-0.9-0.7-1.5c-0.2-0.4-1-2.2-1.7-2.5c-0.6-0.2-1,0.4-0.8,3.1c0.4,6.2,2.4,18.3,10.8,29.1c16.4,16.4,29.9,3.6,31,29.8
		c3.4,26.8,21.6,25.2,21.6,25.2s8.7-0.4,11.6-5c0,0,11.2,10.2,23.1-0.4c0,0,8.9,8.8,19.8-0.3c0,0,8.1,6.5,16.3,0.1
		c0.1-0.1,2.9-2.1,4.4,3.4c1.5,5.5,6.9-32.9,6.9-32.9l3.9-9.7l18.5-9.5l10-19.5L689.6,1521.6z"/>
	<g class="st20">
		<g>
			<g class="st6">
				<g>
					<g>
						<defs>
							<polygon id="SVGID_00000152960994824763894460000003593888107455578006_" points="415.3,1585.9 376.5,1501 444.3,1490.2 
								483.1,1575.2 							"/>
						</defs>
						<clipPath id="SVGID_00000063591783712524901450000003006517410641680319_">
							<use xlink:href="#SVGID_00000152960994824763894460000003593888107455578006_"  style="overflow:visible;"/>
						</clipPath>
						<g style="clip-path:url(#SVGID_00000063591783712524901450000003006517410641680319_);">
							<g>
								<g>
									<g>
										<path d="M393.3,1517.1c-0.5-1.1-0.7-2.3-0.7-3.4c0-1.9,0.6-3.5,1.7-4.8c0.6-0.7,1.3-1.2,2.1-1.6s1.8-0.7,2.8-0.9l29.9-4.7
											c1.4-0.2,2.8-0.2,4.3,0.2c2.1,0.4,4.2,1.4,6,2.8c0.9,0.7,1.7,1.5,2.4,2.3c0.6,0.7,1.1,1.5,1.5,2.2
											c1.9,0.4,3.7,1.7,4.4,3.4c0.8,1.7,0.4,3.4-0.9,4.3l1.7,3.7c1.9,0.4,3.6,1.7,4.4,3.4c0.8,1.7,0.4,3.4-0.9,4.3l14,30.7
											c0.7,1.3,0.9,2.6,0.9,3.8c0,1.9-0.6,3.5-1.7,4.8c-0.6,0.7-1.3,1.2-2.1,1.6c-0.8,0.4-1.8,0.7-2.8,0.9l-29.9,4.7
											c-1.4,0.2-2.8,0.2-4.3-0.2c-2.1-0.5-4.2-1.4-6-2.8c-0.9-0.7-1.7-1.5-2.4-2.3c-0.7-0.9-1.3-1.8-1.8-2.8l-14.1-30.7
											c-1.8-0.5-3.4-1.7-4.1-3.4c-0.7-1.6-0.4-3.2,0.7-4.1l-1.8-3.8c-1.8-0.5-3.4-1.7-4.1-3.4
											C391.8,1519.5,392.1,1518,393.3,1517.1 M425.3,1493.2l-29.9,4.7c-2.6,0.4-4.9,1.3-6.8,2.6c-2.8,1.9-4.6,4.7-5.4,7.8
											c-0.4,1.6-0.5,3.4-0.2,5.1c0.2,1.8,0.7,3.6,1.6,5.5l22.4,49c1.1,2.5,2.8,4.7,4.7,6.8c2.9,3,6.6,5.4,10.5,6.8
											c2,0.7,4,1.2,6,1.5c2,0.2,4.1,0.2,6-0.1l29.9-4.7c2.6-0.4,4.9-1.3,6.8-2.6c2.8-1.9,4.6-4.7,5.4-7.8
											c0.4-1.6,0.5-3.4,0.2-5.1c-0.2-1.8-0.7-3.6-1.6-5.5l-22.4-49c-1.1-2.5-2.8-4.7-4.7-6.8c-2.9-3-6.6-5.4-10.5-6.8
											c-2-0.7-4-1.2-6-1.5C429.3,1492.9,427.3,1492.9,425.3,1493.2"/>
										<path d="M395.1,1516.3c-0.7,0.1-1.3,0.4-1.8,0.7c-1.1,0.9-1.5,2.5-0.7,4.2c0.7,1.6,2.4,2.9,4.1,3.4
											c0.7,0.2,1.5,0.2,2.2,0.2c15.5-2.5,30.9-4.9,46.5-7.4c0.7-0.1,1.1-0.3,1.6-0.7c1.3-0.9,1.7-2.5,0.9-4.3s-2.6-3-4.4-3.4
											c-0.7-0.2-1.3-0.2-1.9-0.1C426.1,1511.4,410.5,1513.8,395.1,1516.3"/>
										<path d="M400.3,1527.6c-0.7,0.2-1.3,0.4-1.8,0.7c-1.1,0.9-1.5,2.5-0.7,4.1c0.7,1.6,2.4,2.9,4.1,3.4
											c0.7,0.2,1.5,0.2,2.2,0.2c15.5-2.5,30.9-4.9,46.5-7.4c0.7-0.1,1.1-0.3,1.6-0.7c1.3-0.9,1.7-2.5,0.9-4.3
											c-0.8-1.7-2.5-3-4.4-3.4c-0.7-0.2-1.3-0.2-2-0.1C431.2,1522.6,415.7,1525.2,400.3,1527.6"/>
										<path d="M430.4,1539.1c-1.5,0.2-2.8,0.7-3.9,1.6c-1.6,1.1-2.7,2.7-3.1,4.6c-0.2,1-0.2,2-0.2,2.9c0.2,1.1,0.4,2.1,1,3.2
											c0.7,1.5,1.6,2.8,2.8,3.9c1.7,1.8,3.8,3.1,6.1,4c1.1,0.4,2.4,0.7,3.5,0.9c1.2,0.2,2.4,0.2,3.5,0c1.5-0.2,2.8-0.7,3.9-1.6
											c1.6-1.1,2.7-2.7,3.1-4.6c0.2-1,0.2-2,0.2-2.9c-0.2-1.1-0.4-2.1-1-3.2l-3.1,0.5l-3.1,0.5c0.3,0.7,0.4,1.3,0.5,1.9
											c0,0.9-0.3,1.7-0.8,2.3c-0.3,0.3-0.7,0.6-1,0.8s-0.8,0.3-1.4,0.4c-0.7,0.1-1.4,0.1-2-0.1c-1.1-0.2-2-0.7-2.9-1.3
											c-0.4-0.3-0.8-0.7-1.1-1.1s-0.7-0.9-0.9-1.4c-0.3-0.7-0.4-1.3-0.5-1.9c0-0.9,0.3-1.7,0.8-2.3c0.2-0.3,0.7-0.6,1-0.8
											c0.3-0.2,0.8-0.3,1.4-0.4c0.7-0.1,1.4-0.1,2,0.1c1.1,0.2,2,0.7,2.9,1.3c0.4,0.3,0.8,0.7,1.1,1.1s0.7,0.9,0.9,1.4l3.1-0.5
											l3.1-0.5c-0.7-1.5-1.6-2.8-2.8-3.9c-1.7-1.8-3.8-3.1-6.1-4c-1.1-0.4-2.4-0.7-3.5-0.9
											C432.6,1538.9,431.5,1538.9,430.4,1539.1"/>
									</g>
								</g>
							</g>
						</g>
					</g>
				</g>
			</g>
		</g>
	</g>
	<g class="st20">
		<g>
			<g class="st6">
				<g>
					<g>
						<defs>
							<polygon id="SVGID_00000145758803901146788140000000670780125655321008_" points="718.6,1540.1 678,1451 753.7,1439 
								794.4,1528 							"/>
						</defs>
						<clipPath id="SVGID_00000152965065185260625970000004973053946489652610_">
							<use xlink:href="#SVGID_00000145758803901146788140000000670780125655321008_"  style="overflow:visible;"/>
						</clipPath>
						<g style="clip-path:url(#SVGID_00000152965065185260625970000004973053946489652610_);">
							<g>
								<g>
									<g>
										<path d="M705.3,1446.7c-2.3,0.4-4.3,1.1-6,2.1c-2.6,1.6-4.5,3.8-5.5,6.5c-0.5,1.4-0.8,2.9-0.9,4.4c0,1.6,0.2,3.2,0.7,4.9
											l13.7,49.7c0.3,1.1,0.7,2,1.1,3c1,2.2,2.4,4.2,4,6c2.5,2.8,5.6,5.1,9,6.6c1.7,0.8,3.5,1.5,5.4,1.9s3.7,0.7,5.5,0.7
											l31.6-0.1c1.1,0,2.2-0.1,3.3-0.2c2.3-0.4,4.3-1.1,6-2.1c2.6-1.6,4.5-3.8,5.5-6.5c0.5-1.4,0.8-2.9,0.9-4.4
											c0-1.6-0.2-3.2-0.7-4.9l-13.7-49.7c-0.3-1.1-0.7-2-1.1-3c-1-2.2-2.4-4.2-4-6c-2.5-2.8-5.6-5.1-9-6.6
											c-1.7-0.8-3.5-1.5-5.4-1.9s-3.7-0.7-5.5-0.7l1.1,4.3l1.1,4.3c1.4,0,2.7,0.2,4,0.7c2,0.6,3.7,1.6,5.3,2.9
											c1.5,1.3,2.8,2.9,3.6,4.6c0.2,0.3,0.3,0.7,0.4,1c1.9,0.7,3.4,2.1,3.9,3.9c0.5,1.7-0.2,3.3-1.7,3.9l1.1,3.7
											c1.9,0.7,3.4,2.1,3.9,3.9c0.5,1.7-0.2,3.3-1.7,3.9l8.5,31.1c0.3,1.2,0.4,2.4,0.2,3.4c-0.2,1.6-1,3-2.1,4.1
											c-1.1,1.1-2.7,1.8-4.5,2.1c-0.6,0.1-1.1,0.2-1.7,0.2l-31.6,0.1c-1.4,0-2.7-0.2-4-0.7c-2-0.6-3.7-1.6-5.3-2.9
											c-1.5-1.3-2.8-2.9-3.6-4.6c-0.2-0.5-0.4-1.1-0.6-1.6l-8.5-31.1c-1.7-0.7-3.2-2.1-3.6-3.8c-0.5-1.6,0.2-3.1,1.5-3.8
											l-1.1-3.9c-1.7-0.7-3.2-2.1-3.6-3.8c-0.5-1.6,0.2-3.1,1.5-3.8c-0.2-1.1-0.2-2-0.2-2.9c0.2-1.6,1-3,2.1-4.1
											c1.1-1.1,2.7-1.8,4.5-2.1c0.6-0.1,1.1-0.2,1.7-0.2l31.6-0.1l-1.1-4.3l-1.1-4.3l-31.6,0.1
											C707.4,1446.5,706.3,1446.5,705.3,1446.7"/>
										<path d="M704,1463.8c-0.5,0.1-0.9,0.2-1.2,0.4c-1.4,0.7-2,2.1-1.5,3.8c0.5,1.6,1.9,3.1,3.6,3.8c0.7,0.3,1.5,0.5,2.2,0.5
											c16.4,0,32.7-0.1,49.1-0.1c0.2,0,0.5,0,0.7-0.1c0.4-0.1,0.7-0.2,1.1-0.3c1.5-0.7,2.2-2.1,1.7-3.9c-0.5-1.7-2-3.3-3.9-3.9
											c-0.7-0.2-1.3-0.3-2-0.3c-16.4,0-32.7,0.1-49.1,0.1C704.4,1463.8,704.1,1463.8,704,1463.8"/>
										<path d="M707,1475.3c-0.5,0.1-0.9,0.2-1.2,0.4c-1.3,0.7-2,2.1-1.5,3.8c0.5,1.6,1.9,3.1,3.6,3.8c0.7,0.3,1.5,0.5,2.2,0.5
											c16.4,0,32.7-0.1,49.1-0.1c0.2,0,0.5,0,0.7-0.1c0.4-0.1,0.7-0.2,1.1-0.3c1.5-0.7,2.2-2.1,1.7-3.9c-0.5-1.8-2-3.3-3.9-3.9
											c-0.7-0.2-1.3-0.3-2-0.3c-16.4,0-32.7,0.1-49.1,0.1C707.5,1475.2,707.3,1475.2,707,1475.3"/>
										<path d="M744.6,1501.2L744.6,1501.2L744.6,1501.2L744.6,1501.2 M741.6,1505.8c-0.2,0.1-0.6,0.1-0.8,0.1
											c-0.7,0-1.3-0.1-1.9-0.3c-0.9-0.3-1.8-0.8-2.5-1.4c-0.7-0.7-1.4-1.4-1.7-2.2c-0.2-0.2-0.2-0.5-0.3-0.8
											c-0.2-0.6-0.2-1.1-0.2-1.6c0.1-0.8,0.5-1.5,1-2c0.5-0.5,1.3-0.9,2.2-1.1c0.2-0.1,0.6-0.1,0.8-0.1c0.7,0,1.3,0.1,1.9,0.3
											c0.9,0.3,1.8,0.8,2.5,1.4c0.7,0.7,1.4,1.4,1.7,2.2c0.2,0.2,0.2,0.5,0.3,0.8l0,0c0.2,0.6,0.2,1.1,0.2,1.6
											c-0.1,0.8-0.5,1.5-1,2C743.2,1505.3,742.5,1505.7,741.6,1505.8 M734.7,1490.8c-1.3,0.2-2.5,0.7-3.5,1.2
											c-1.5,0.9-2.6,2.2-3.3,3.8c-0.6,1.6-0.7,3.4-0.2,5.4l0,0c0.2,0.6,0.4,1.1,0.7,1.7c0.6,1.3,1.4,2.5,2.4,3.5
											c1.5,1.6,3.3,2.9,5.3,3.8c2,1,4.2,1.5,6.3,1.5c0.7,0,1.3-0.1,1.9-0.2l0,0c1.3-0.2,2.5-0.7,3.5-1.2
											c1.5-0.9,2.6-2.2,3.3-3.8c0.6-1.6,0.7-3.4,0.2-5.4l0,0c-0.2-0.6-0.4-1.1-0.7-1.7c-0.6-1.3-1.4-2.5-2.4-3.5
											c-1.5-1.6-3.3-2.9-5.3-3.8c-2-1-4.2-1.5-6.3-1.5C735.9,1490.6,735.4,1490.6,734.7,1490.8L734.7,1490.8"/>
									</g>
								</g>
							</g>
						</g>
					</g>
				</g>
			</g>
		</g>
	</g>
	<path class="st23" d="M403,1497.6c-22-44.5-23.8-97.9,0-137.9c23.8-40,58.3-63.1,108-70c49.7-6.9,100.4,5,109.7,13.2"/>
	<path class="st23" d="M420.7,1497.6c-22-44.5-23.8-94.7,0-134.7c19.6-32.9,60.8-53.1,98.4-57c30.3-3.1,68.3,0.5,84.9,7.8"/>
	<path class="st23" d="M721,1423c3.1,2.9,5,6.7,7.2,11c2.4,4.7,3.3,6.9,5.9,14.5"/>
	<path class="st23" d="M708.1,1431.7c1,1.4,4,6.5,5,8.7c1,2.3,2.5,5.1,3.4,8.7"/>
</g>
</svg>
