<svg id="layer" xmlns="http://www.w3.org/2000/svg" xmlns:xlink="http://www.w3.org/1999/xlink" viewBox="0 0 2423.32 380.77" height="100px" width="100px" transform="rotate(0) scale(1, 1)">
  <defs>
    <clipPath id="clippath">
      <polygon points="38.79 306.03 0 220.32 67.75 209.45 106.54 295.16 38.79 306.03" fill="none" stroke-width="0"/>
    </clipPath>
    <clipPath id="clippath-1">
      <polygon points="342.15 259.71 301.54 169.98 377.29 157.81 417.91 247.54 342.15 259.71" fill="none" stroke-width="0"/>
    </clipPath>
    <filter id="drop-shadow-1" filterUnits="userSpaceOnUse">
      <feOffset dx="6.16" dy="6.16"/>
      <feGaussianBlur result="blur" stdDeviation="1.03"/>
      <feFlood flood-color="#a3a3a3" flood-opacity="1"/>
      <feComposite in2="blur" operator="in"/>
      <feComposite in="SourceGraphic"/>
    </filter>
  </defs>
  <g>
    <path d="M96.12,214.82s87.92-102.17,204.98-50.84l14.33,54.24s19.33,54.53-31.77,61.21c3.34,13.07-3.11,22.56-2.63,32.73.47,10.17,21.02,50.36-10.52,57.62-31.54,7.26-88.87,8.72-124.71-28.09-6.21-6.29,7.16-44.55,3.83-50.36-3.34-5.82-67.85-9.69-53.5-76.51Z" fill="none" stroke="#f55536" stroke-linecap="round" stroke-linejoin="round" stroke-width="13.73"/>
    <path d="M94.67,216.84c-.57,0-1.12-.23-1.53-.7-.53-.6-13.02-15.05-21.59-35.29-5.07-11.96-7.67-23.45-7.75-34.15-.1-13.45,3.83-25.63,11.64-36.21,13.13-22.11,34.54-40.73,60.32-52.42,12.25-5.55,24.87-9.28,37.51-11.12,12.88-1.86,25.15-1.63,36.47.68.79.16,1.42.8,1.59,1.61,3.03,15.32,1.81,29.84-3.62,43.14-4.33,10.62-11.34,20.48-20.82,29.28-16.06,14.93-33.44,21.61-34.17,21.9-1.06.39-2.22-.14-2.63-1.22-.39-1.07.14-2.25,1.2-2.66h0c.16-.06,17.46-6.74,32.93-21.16,20.19-18.81,28.04-41.39,23.38-67.15-5.74-1.09-11.68-1.61-17.71-1.61-42.15,0-88.89,25.53-111,62.88-.04.06-.08.12-.12.19-13.31,17.94-14.51,40.24-3.52,66.24,8.3,19.65,20.82,34.13,20.94,34.28.75.85.67,2.17-.18,2.91-.39.41-.85.58-1.34.58Z" fill="none" stroke="#f55536" stroke-miterlimit="10" stroke-width="10.24"/>
    <path d="M301.56,167.94c-.9,0-1.71-.6-1.95-1.51-.31-1.09.33-2.23,1.4-2.54.26-.08,22.83-6.62,41.33-21.43,14.35-11.47,25.22-28.71,30.59-48.55,6.88-24.93-2.87-47.27-9-55.6-6.63-9.03-20.31-16.6-37.55-20.77-20.43-4.95-45.12-4.1-67.73,2.33-22.71,6.45-40.07,17.69-47.58,30.83-.57.99-1.81,1.32-2.79.74-.98-.58-1.3-1.84-.73-2.83,4.17-7.28,10.87-13.88,19.94-19.65,8.38-5.34,18.78-9.86,30.06-13.07,23.26-6.62,48.7-7.49,69.78-2.37,18.13,4.39,32.66,12.54,39.87,22.31,4.56,6.23,8.34,15.08,10.38,24.29,2.58,11.71,2.32,23.76-.75,34.87-5.6,20.66-16.97,38.69-31.99,50.69-19.17,15.32-41.8,21.88-42.76,22.15-.16.04-.35.08-.53.08Z" fill="none" stroke="#f55536" stroke-miterlimit="10" stroke-width="10.24"/>
    <path d="M112.18,72.33c-.59.02-1.18-.23-1.59-.7-.2-.25-5.09-6.04-3.56-13.32,1.2-5.67,5.86-10.48,13.86-14.25,11.19-5.28,18.7-7.28,24.36-6.43,6.8.99,10.24,6,12.68,10.77.53,1.01.14,2.25-.85,2.78-1,.54-2.22.14-2.75-.87-4.38-8.5-8.95-13.26-31.71-2.5-6.78,3.22-10.68,7.03-11.6,11.38-1.12,5.3,2.6,9.71,2.65,9.75.73.87.65,2.17-.2,2.91-.37.31-.81.47-1.28.47Z" fill="none" stroke="#f55536" stroke-miterlimit="10" stroke-width="10.24"/>
    <path d="M145.8,115.76c-.9,0-1.71-.6-1.95-1.53-11.05-40.75-4.84-55.6-4.56-56.22.47-1.03,1.67-1.51,2.69-1.03,1.02.45,1.49,1.67,1.04,2.7-.04.08-1.49,3.65-1.63,11.92-.14,7.69.88,21.16,6.39,41.53.31,1.09-.35,2.23-1.42,2.54-.18.06-.37.08-.55.08Z" fill="none" stroke="#f55536" stroke-miterlimit="10" stroke-width="10.24"/>
    <ellipse cx="271.47" cy="220.99" rx="25.38" ry="37.26" transform="translate(-8.12 10.36) rotate(-2.15)" fill="#f55536" stroke="#f55536" stroke-miterlimit="10" stroke-width="1.02"/>
    <ellipse cx="183.03" cy="223.51" rx="33.25" ry="41.61" transform="translate(-8.07 6.86) rotate(-2.1)" fill="#f55536" stroke="#f55536" stroke-miterlimit="10" stroke-width="1.02"/>
    <ellipse cx="241.95" cy="261.01" rx="7.16" ry="13.58" transform="translate(-108.97 201.7) rotate(-37.58)" fill="#f55536" stroke="#f55536" stroke-miterlimit="10" stroke-width="1.02"/>
    <ellipse cx="231.35" cy="262.13" rx="13.76" ry="7.04" transform="translate(-107.11 349.8) rotate(-63.09)" fill="#f55536" stroke="#f55536" stroke-miterlimit="10" stroke-width="1.02"/>
    <path d="M313.04,241.15s.63,24.21-26.01,29.06c-11.46,2.27-11.25,11.3-11.25,11.3,0,0,1.77,26.38-7.22,31.31-7.37,4.06-8.34-4.52-8.49-5.16-.37-.89-2.3-19.55-6.37-8.6-1.59,3.98-.75,16.46-8.08,16.89-7.33.43-7.43-14.75-7.43-14.75,0,0-2.01-13.34-5.64,0-1.28,5.28-3.2,20.77-11.68,12.91-3.07-3.34-6.17-30.23-11.15-11.51-3.13,12.7-10.56,19.18-16.46,5.59-2.6-5.77-2.44-27.43-10.2-31.74-7.75-4.31-24.73-3.77-34.62-18.29-2.91-5.11-5.41-13.36-6.78-17.18-.22-.62-.35-.89-.61-1.48-.16-.41-.94-2.25-1.67-2.52-.55-.21-1,.39-.81,3.11.43,6.25,2.32,18.5,10.83,29.37,16.46,16.56,29.94,3.65,30.99,30.01,3.4,27.02,21.55,25.39,21.55,25.39,0,0,8.71-.43,11.58-5.05,0,0,11.25,10.33,23.14-.43,0,0,8.91,8.93,19.74-.33,0,0,8.12,6.6,16.24.1.1-.04,2.93-2.14,4.36,3.34,1.42,5.49,6.9-33.14,6.9-33.14l3.93-9.82,18.58-9.55,9.97-19.69-3.34-9.14Z" fill="#f55536" stroke="#f55536" stroke-linecap="round" stroke-linejoin="round" stroke-width=".2"/>
    <g isolation="isolate">
      <g clip-path="url(#clippath)">
        <g>
          <path d="M16.79,236.55c-.47-1.18-.69-2.31-.69-3.4-.02-1.86.59-3.55,1.73-4.87.57-.66,1.28-1.22,2.1-1.65s1.75-.74,2.81-.93l29.94-4.81c1.4-.23,2.85-.16,4.27.12,2.14.43,4.25,1.42,6.04,2.8.9.68,1.71,1.46,2.42,2.33.57.7,1.06,1.44,1.47,2.23,1.85.39,3.62,1.71,4.42,3.44.77,1.73.37,3.38-.9,4.29l1.67,3.67c1.85.39,3.6,1.71,4.4,3.44.77,1.73.37,3.38-.9,4.29l13.98,30.89c.61,1.34.9,2.66.92,3.9.02,1.86-.59,3.55-1.73,4.87-.57.66-1.26,1.22-2.1,1.65-.81.43-1.75.74-2.81.93l-29.94,4.81c-1.4.23-2.85.16-4.27-.12-2.14-.45-4.25-1.42-6.04-2.8-.9-.68-1.71-1.46-2.42-2.33-.71-.87-1.3-1.79-1.77-2.8l-14.04-31c-1.75-.45-3.38-1.73-4.13-3.38s-.41-3.24.71-4.15l-1.75-3.88c-1.75-.45-3.38-1.73-4.13-3.38-.73-1.67-.39-3.26.75-4.17M48.84,212.49l-29.94,4.81c-2.6.41-4.86,1.32-6.72,2.6-2.77,1.92-4.62,4.68-5.35,7.9-.37,1.61-.45,3.34-.22,5.14.22,1.79.73,3.65,1.59,5.53l22.39,49.45c1.12,2.5,2.75,4.81,4.68,6.83,2.91,3.03,6.55,5.4,10.46,6.87,1.95.74,3.97,1.24,5.98,1.48s4.05.23,5.98-.08l29.94-4.81c2.6-.41,4.86-1.32,6.72-2.62,2.77-1.92,4.62-4.68,5.35-7.9.37-1.61.45-3.34.22-5.14-.22-1.79-.73-3.65-1.59-5.53l-22.39-49.45c-1.12-2.5-2.75-4.81-4.68-6.83-2.91-3.03-6.55-5.4-10.46-6.87-1.95-.74-3.97-1.24-5.98-1.48-2.01-.23-4.03-.21-5.98.1" fill="#f55536" stroke-width="0"/>
          <path d="M18.54,235.79c-.71.1-1.3.37-1.77.76-1.12.93-1.47,2.52-.73,4.17.75,1.65,2.38,2.91,4.13,3.38.73.19,1.47.25,2.18.12,15.49-2.47,30.95-4.97,46.44-7.44.63-.1,1.16-.33,1.61-.64,1.26-.91,1.67-2.56.9-4.29-.79-1.73-2.56-3.05-4.42-3.44-.63-.14-1.28-.16-1.89-.06-15.47,2.47-30.95,4.95-46.44,7.44" fill="#f55536" stroke-width="0"/>
          <path d="M23.71,247.19c-.71.12-1.3.39-1.77.76-1.12.93-1.47,2.52-.71,4.15.75,1.65,2.38,2.91,4.13,3.38.73.19,1.47.25,2.18.12,15.49-2.47,30.95-4.97,46.44-7.44.63-.1,1.16-.33,1.61-.64,1.26-.91,1.67-2.56.9-4.29s-2.54-3.03-4.4-3.44c-.63-.14-1.28-.16-1.91-.06-15.51,2.5-30.97,4.99-46.46,7.47" fill="#f55536" stroke-width="0"/>
          <path d="M53.87,258.78c-1.51.25-2.83.76-3.91,1.53-1.63,1.11-2.69,2.72-3.11,4.6-.2.95-.26,1.94-.14,2.99s.43,2.12.94,3.22c.65,1.44,1.61,2.8,2.73,3.98,1.69,1.77,3.83,3.16,6.09,4,1.14.43,2.32.72,3.48.87,1.18.14,2.36.12,3.5-.04,1.51-.25,2.83-.76,3.91-1.53,1.63-1.11,2.69-2.72,3.11-4.6.2-.95.26-1.94.14-2.99s-.43-2.12-.94-3.22l-3.07.49-3.07.49c.31.66.43,1.28.45,1.88,0,.89-.28,1.71-.83,2.33-.28.31-.61.58-1,.78s-.83.35-1.36.43c-.67.1-1.36.08-2.06-.06-1.04-.21-2.06-.68-2.91-1.34-.43-.33-.83-.7-1.16-1.11-.35-.41-.63-.87-.85-1.36-.31-.66-.43-1.28-.45-1.88-.02-.89.28-1.71.83-2.33.26-.31.61-.58,1-.78s.83-.35,1.36-.43c.67-.1,1.36-.08,2.06.06,1.04.21,2.06.68,2.91,1.34.43.33.83.7,1.16,1.11.35.41.63.87.85,1.36l3.07-.49,3.07-.49c-.65-1.44-1.59-2.8-2.73-3.98-1.69-1.77-3.83-3.16-6.09-4-1.14-.43-2.32-.72-3.48-.87-1.2-.14-2.38-.14-3.5.04" fill="#f55536" stroke-width="0"/>
        </g>
      </g>
    </g>
    <g isolation="isolate">
      <g clip-path="url(#clippath-1)">
        <g>
          <path d="M328.84,165.59c-2.28.37-4.31,1.11-6.02,2.17-2.58,1.59-4.48,3.88-5.49,6.62-.51,1.38-.81,2.87-.85,4.43s.14,3.24.61,4.93l13.68,50.13c.28,1.03.65,2.04,1.1,3.01.98,2.19,2.36,4.23,4.01,6.08,2.48,2.76,5.58,5.07,9.02,6.7,1.71.8,3.5,1.44,5.33,1.88,1.83.43,3.7.66,5.56.66l31.65-.06c1.12,0,2.18-.08,3.22-.25,2.28-.37,4.31-1.11,6.02-2.17,2.58-1.59,4.48-3.88,5.49-6.62.51-1.38.79-2.87.85-4.43.04-1.57-.14-3.24-.61-4.93l-13.68-50.13c-.28-1.03-.65-2.04-1.1-3.01-1-2.19-2.36-4.23-4.01-6.08-2.48-2.76-5.58-5.07-9.02-6.7-1.71-.8-3.5-1.44-5.35-1.88-1.83-.43-3.7-.66-5.56-.66l1.16,4.27,1.16,4.27c1.34,0,2.67.23,3.95.62,1.91.6,3.74,1.63,5.29,2.93,1.55,1.32,2.79,2.89,3.58,4.64.14.33.28.68.41,1.01,1.83.66,3.4,2.17,3.89,3.92.47,1.75-.26,3.26-1.73,3.92l1.02,3.73c1.83.66,3.38,2.17,3.87,3.92.47,1.75-.26,3.26-1.73,3.92l8.55,31.33c.33,1.24.41,2.39.26,3.46-.22,1.61-.96,3.03-2.08,4.12-1.14,1.09-2.65,1.84-4.48,2.12-.55.08-1.12.14-1.73.14l-31.65.06c-1.34,0-2.67-.23-3.95-.62-1.91-.6-3.74-1.63-5.27-2.93-1.55-1.32-2.79-2.89-3.58-4.64-.24-.52-.43-1.07-.59-1.63l-8.57-31.43c-1.71-.7-3.15-2.14-3.6-3.82s.18-3.11,1.53-3.82l-1.08-3.94c-1.71-.7-3.13-2.14-3.6-3.82-.45-1.67.2-3.13,1.53-3.84-.22-1.05-.26-2.04-.14-2.97.22-1.61.96-3.03,2.08-4.12,1.14-1.09,2.65-1.84,4.48-2.12.55-.08,1.12-.14,1.73-.14l31.65-.06-1.16-4.27-1.16-4.27-31.65.06c-1.12.04-2.18.12-3.22.29" fill="#f55536" stroke-width="0"/>
          <path d="M327.45,182.85c-.45.06-.85.21-1.2.39-1.34.7-1.99,2.14-1.53,3.84.45,1.67,1.89,3.11,3.6,3.82.71.29,1.47.45,2.22.45,16.36-.02,32.75-.06,49.11-.08.26,0,.51-.02.75-.06.37-.06.71-.16,1.02-.31,1.47-.66,2.2-2.17,1.73-3.92-.49-1.75-2.06-3.28-3.89-3.92-.63-.23-1.28-.35-1.93-.35-16.36.02-32.75.06-49.11.08-.28,0-.55.02-.77.06" fill="#f55536" stroke-width="0"/>
          <path d="M330.61,194.42c-.45.08-.85.21-1.22.39-1.32.7-1.97,2.14-1.53,3.82s1.89,3.11,3.6,3.82c.71.29,1.47.45,2.22.45,16.36-.02,32.72-.06,49.11-.08.26,0,.51-.02.75-.06.37-.06.71-.16,1.02-.29,1.47-.66,2.2-2.17,1.73-3.92s-2.04-3.26-3.87-3.92c-.63-.23-1.3-.35-1.95-.35-16.36.02-32.75.06-49.11.08-.26,0-.53.02-.75.06" fill="#f55536" stroke-width="0"/>
          <path d="M368.19,220.55h0M365.18,225.23c-.26.04-.55.06-.83.06-.65,0-1.28-.1-1.89-.31-.92-.29-1.79-.78-2.54-1.42-.73-.64-1.34-1.4-1.71-2.23-.12-.25-.2-.52-.28-.78-.16-.6-.2-1.15-.12-1.67.1-.78.45-1.46,1-1.98s1.28-.89,2.16-1.03c.26-.04.55-.06.83-.06.65,0,1.28.1,1.89.31.92.29,1.79.78,2.54,1.42.73.64,1.34,1.4,1.71,2.23.12.25.2.52.28.78h0c.16.6.2,1.15.12,1.67-.1.78-.45,1.46-1,1.98-.55.54-1.28.89-2.16,1.03M358.24,209.99c-1.32.21-2.5.64-3.5,1.26-1.51.93-2.6,2.25-3.22,3.86-.59,1.61-.67,3.49-.14,5.47h0c.16.6.39,1.18.63,1.75.57,1.28,1.38,2.47,2.34,3.55,1.44,1.61,3.26,2.97,5.25,3.9,1.99.95,4.19,1.48,6.35,1.48.65,0,1.28-.06,1.87-.14h.02c1.32-.21,2.5-.64,3.5-1.26,1.51-.93,2.6-2.25,3.22-3.86.59-1.61.67-3.49.14-5.47h0c-.16-.6-.37-1.18-.63-1.75-.57-1.28-1.38-2.47-2.34-3.55-1.44-1.61-3.26-2.97-5.25-3.9-1.99-.95-4.19-1.48-6.35-1.48-.65,0-1.28.04-1.89.14.02,0,0,0,0,0" fill="#f55536" stroke-width="0"/>
        </g>
      </g>
    </g>
    <path d="M26.52,216.84c-21.98-44.83-23.87-98.76,0-139.08C50.39,37.44,84.86,14.07,134.56,7.18c49.7-6.89,100.39,4.99,109.65,13.32" fill="none" stroke="#f55536" stroke-linecap="round" stroke-linejoin="round" stroke-width="10.24"/>
    <path d="M44.2,216.84c-21.98-44.83-23.85-95.5,0-135.86,19.62-33.18,60.75-53.58,98.36-57.46,30.32-3.11,68.36.47,84.93,7.92" fill="none" stroke="#f55536" stroke-linecap="round" stroke-linejoin="round" stroke-width="10.24"/>
    <path d="M344.53,141.71c3.05,2.89,5.01,6.78,7.14,11.14,2.32,4.7,3.22,6.91,5.88,14.64" fill="none" stroke="#f55536" stroke-linecap="round" stroke-linejoin="round" stroke-width="10.24"/>
    <path d="M331.64,150.43c.96,1.36,3.95,6.58,4.92,8.74,1,2.27,2.5,5.14,3.4,8.74" fill="none" stroke="#f55536" stroke-linecap="round" stroke-linejoin="round" stroke-width="10.24"/>
  </g>
  <g filter="url(#drop-shadow-1)">
    <path d="M2130.2,302.51c-1.7-49.92-3.36-98.69-5.03-147.71,8.77-3.9,17.18-6.03,26.13-6.19,12.98-.23,25.97-.87,38.95-.77,4.21.03,8.65,1.3,12.54,3.02,5.6,2.48,10.74,5.97,16.17,8.86,11.31,6.03,17.45,15.74,20.76,27.82,4.16,15.2,3.26,29.81-.16,45.36-4.24,19.28-13.32,34.29-26.98,48.07-10.53,10.62-22.43,16.12-36.74,17.94-8.13,1.03-16.18,2.78-24.33,3.49-6.71.59-13.51.12-21.31.12Z" fill="#f55536" stroke-width="0"/>
    <path d="M2311.05,234.64c-.53-11.62-1.2-23.23-1.54-34.86-.38-13.44,7.64-22.07,17.59-29.4,1.01-.74,2.55-.92,3.88-1.06,14.62-1.54,29.31-2.61,43.85-4.66,10.94-1.54,20.23,2.96,27.22,9.37,7.82,7.17,14.56,16.51,15.59,28.06,1.98,22.12,3.57,44.28,5.57,66.41.79,8.72-2.78,16.17-6.61,23.3-2.75,5.12-8.73,6.22-14.31,6.69-10.56.89-21.14,1.67-31.7,2.48-3.07.24-6.3-.11-9.19.73-14.53,4.2-26.84-.93-38.56-8.72-7.66-5.09-9.15-13.29-9.76-21.47-.93-12.27-1.16-24.6-1.69-36.9-.11,0-.23,0-.34.01Z" fill="#f55536" stroke-width="0"/>
    <path d="M1535.96,239.87c-.66,20.32-1.32,40.63-1.99,61.36-9.71,3.12-18.82.89-28.8,1.41-2.03-45.44-3.01-90.31,1.18-136.46,12.12.64,23.65,1.08,35.13,2.05,1.84.16,3.96,2.44,5.1,4.28,2.33,3.76,4.23,7.81,6.04,11.86,8.63,19.3,17.17,38.64,26.67,57.88,3.37-23.43,1.39-47.04,3.15-70.62h27.48c2.84,9.14,3.22,116.39.52,129.28-12.59,1.45-25.38.5-38.47-.42-7.67-22.87-22.64-41.06-36.01-60.62Z" fill="#f55536" stroke-width="0"/>
    <path d="M1280.9,242.1c.46-23.39.92-46.77,1.39-70.52h27.63c2.92,8.86,3.44,115.18.69,129.28-12.57,1.46-25.35.55-38.53-.33-7.11-22.08-21.79-39.57-33-59.03-.44-.76-1.39-1.23-2.99-2.59-.69,21.23-1.35,41.52-2.02,62.2-9.59,3.36-18.72,1.03-28.92,1.52-1.49-45.34-2.55-90.2,1.16-136.4,12.17.62,23.69.97,35.14,2.02,2.05.19,4.52,2.91,5.62,5.06,4.21,8.2,8.03,16.6,11.82,25.01,5.62,12.46,11.07,25.01,16.65,37.49,1.03,2.3,2.38,4.45,3.58,6.67.59-.12,1.17-.25,1.76-.37Z" fill="#f55536" stroke-width="0"/>
    <path d="M1171.02,233.73c-10.67.81-20.38,1.54-30.37,2.3v28.73h49.37c1.33,9.76,2.54,18.69,3.81,28.01-32.9,3.93-64.37,7.68-96.85,11.55-1.98-52.77-3.97-105.85-6-159.88,28.08-.03,55.89.48,84.94,3.87-1.28,9.47-2.44,18.12-3.74,27.74-10.86.59-21.27,1.16-32.43,1.78v23.22h23.29c4.55,10.87,6.49,21.03,7.97,32.69Z" fill="#f55536" stroke-width="0"/>
    <path d="M1672.26,201.42h24.42c2.5,10.63,4.87,20.73,7.57,32.26-11.34.86-21.06,1.6-32.15,2.44.42,9.48.83,18.52,1.28,28.69h49.12c1.31,9.68,2.47,18.34,3.77,27.94-32.8,3.93-64.46,7.72-96.85,11.6-1.95-52.86-3.9-105.75-5.9-159.89,27.76-.02,55.85.32,85.1,3.97-1.37,9.51-2.61,18.16-3.98,27.67-11,.58-21.39,1.13-32.38,1.71v23.62Z" fill="#f55536" stroke-width="0"/>
    <path d="M567.75,163.77h29.14c-.57,18.95-1.13,37.47-1.75,58.29,7.2-6.31,12.7-10.75,17.76-15.64,12.14-11.75,26.19-20.82,40.39-29.77,4.82-3.04,9.1-3.96,14.32-1.51,3.07,1.44,6.57,1.91,9.74,3.16,5.01,1.97,5.91,5.41,2.43,9.44-1.77,2.05-4.02,3.71-6.14,5.43-14.33,11.6-28.69,23.16-43.97,35.49,1.79,2.83,3.68,5.92,5.66,8.94,10.47,16.04,21.01,32.03,31.39,48.13,1.84,2.85,3.45,5.98,4.47,9.2,1.09,3.43.77,6.91-3.48,8.4-12.18,4.28-23.91,10-37.55,12.3-12.75-18.91-16.45-42.17-30.11-60.46-5.06.87-4.09,4.74-4.32,7.93-.79,11.26-1.54,22.52-2.36,33.77-.1,1.32-.59,2.6-1.02,4.41-9.79,2.36-19.5,1.21-29.46.39,1.63-46.17,3.23-91.79,4.86-137.9Z" fill="#f55536" stroke-width="0"/>
    <path d="M1823.76,142.9c22.39-4.52,44.02-8.88,66.48-13.41,2.64,8.73,4.97,16.45,7.39,24.48-9.32,5.82-17.83,11.44-26.65,16.52-5.63,3.25-9.57,7.17-10.97,13.83-1.11,5.3-3.39,10.35-5.45,16.4,15.19,13.02,32.02,23.98,49.26,36.1-1.37,6.71-2.79,13.64-4.2,20.57-1.57,7.7-3.37,15.36-4.61,23.12-.89,5.6-3.42,9.24-8.83,11.33-7.97,3.07-15.65,6.88-23.65,9.85-3.04,1.13-6.8,1.64-9.92.98-15-3.18-29.89-6.87-45.33-10.49v-24.05c14.52-.55,29.08-1.11,43.37-1.66,3.31-6.93,1.58-11.48-3.38-16.05-10.06-9.26-19.53-19.15-29.39-28.63-5.74-5.51-7.04-11.38-5.13-19.38,3.65-15.26,5.92-30.85,8.74-46.31.73-4.03,1.38-8.07,2.26-13.21Z" fill="#f55536" stroke-width="0"/>
    <path d="M471.57,142.83c21.82-4.43,43.18-8.77,65.86-13.37,2.65,8.4,5.15,16.32,7.7,24.41-9.93,6.21-18.7,12.06-27.85,17.27-5.13,2.92-8.42,6.69-9.62,12.39-.21,1-.5,1.99-.82,2.97-4.93,14.93-5.01,15.03,7.97,24.54,11.57,8.47,23.32,16.69,35.62,25.47-.14,2.24-.02,4.95-.54,7.52-2.43,12.05-5.44,24-7.42,36.11-1.02,6.22-3.94,9.77-9.52,11.98-7.62,3.01-15.06,6.5-22.72,9.41-2.75,1.05-6.1,1.9-8.86,1.32-15.63-3.3-31.16-7.07-47.05-10.76v-23.86c14.49-.6,29.29-1.21,43.51-1.8,3.48-6.72,2.12-11.06-2.58-15.46-10.72-10.04-20.95-20.6-31.44-30.89-3.68-3.61-5.41-7.74-4.43-12.92,4.01-21.09,7.98-42.19,12.16-64.34Z" fill="#f55536" stroke-width="0"/>
    <path d="M1390.02,256.48c-.49-10.1-.94-19.56-1.46-30.18,11.3-1.68,22.13-1.87,32.94-1.46,4.34.16,15.75,13.47,16.06,18.56.61,10.2,1.29,20.34-1.48,30.55-4.58,16.95-15.95,26.1-32.44,28.73-16.47,2.62-32.76.64-48.23-6.06-12.87-5.57-21.82-14.97-27.11-27.95-14.69-35.98-2.07-82.96,28.65-106.53,9.54-7.31,31.19-12.65,44.27-10.64,3.92,8.21,8.01,16.76,12.53,26.21-3.66,1.86-6.79,3.65-10.07,5.09-14.43,6.3-26.35,15.79-35.94,28.18-2.7,3.49-5.22,7.24-7.16,11.2-7.17,14.63-4.38,30.99,6.99,42.57,4.26,4.33,9.53,6.97,15.55,6.83,6.32-.15,12.62-1.25,19.71-2.01-.45-4.65-.76-7.89-1.1-11.48-3.91-.54-7.21-.99-11.7-1.61Z" fill="#f55536" stroke-width="0"/>
    <path d="M694.45,173.95c13.71.77,26.5,1.48,40.09,2.24.26,5.4.91,10.11.65,14.77-1.26,22.51-2.85,45-4.09,67.52-.2,3.62-.11,7.7,1.35,10.87,4.08,8.81,18.9,12.71,27.33,7.41,1.77-1.11,3.28-3.66,3.68-5.78,1.55-8.35,3.46-16.78,3.66-25.21.39-16.37.65-32.78-2.91-49.02-1.13-5.16-.18-10.77-.18-17.52,9.5-1.17,19.1-2.36,29.93-3.7,1.66,10.65,3.47,19.95,4.47,29.33,1.09,10.19,1.14,20.49,2.18,30.68,1.54,15.05-1.86,29.38-6.87,43.15-4.73,13-14.25,21.57-28.93,22.39-12.25.69-24.55,1.72-36.79,1.4-16.03-.42-24.34-7.78-28.33-23.12-5.99-23.01-8.01-46.44-7.16-70.13.41-11.52,1.23-23.03,1.91-35.3Z" fill="#f55536" stroke-width="0"/>
    <path d="M2008.97,173.95c13.86.75,26.4,1.44,40,2.18.34,4.31,1.09,8.29.88,12.21-1.06,20.47-2.37,40.92-3.59,61.38-.25,4.1-.73,8.19-.77,12.28-.11,10.36,6.18,16.67,16.3,16.54.34,0,.68-.04,1.02-.05,13.28-.44,16.03-2.69,17.52-15.85,2.39-21.13,2.67-42.24-1.09-63.31-1.07-5.99-1.02-12.17-1.5-18.59,9.74-4.42,19.62-3.72,29.58-4.78,4.76,10.38,4.7,21.06,5.94,31.41.98,8.13.89,16.4,1.84,24.54,1.88,16.04-1.74,31.25-6.34,46.34-3.28,10.78-16.94,23.26-29.81,23.05-11.91-.2-23.86,1.52-35.77,1.23-16.65-.41-24.84-7.6-28.98-23.63-6.03-23.36-8-47.13-6.99-71.17.45-10.87,1.11-21.74,1.74-33.78Z" fill="#f55536" stroke-width="0"/>
    <path d="M1007.8,266.39c0,11.13.1,21.33-.06,31.52-.05,3.36-.77,6.71-1.32,11.13-30.08-2.26-59.61-4.47-89.91-6.74v-145.52h43.82c-.42,18.19-1.01,36.19-1.22,54.19-.21,17.72-.05,35.45-.05,53.43,16.88,2.87,32.4,4.27,48.73,1.98Z" fill="#f55536" stroke-width="0"/>
    <path d="M855.1,265.69c16.31.71,31.88,1.39,48.53,2.12.72,12.78-.04,26.56-1.85,41.25-30.33-2.28-59.87-4.5-90.04-6.77v-145.26c6.67-.25,13.69-.62,20.71-.75,7.15-.13,14.31-.03,22.96-.03.98,18.1-1.68,36.03-1.17,53.94.52,18.05.58,36.11.86,55.49Z" fill="#f55536" stroke-width="0"/>
    <path d="M1993.17,157.34c1.12,7.7,2.34,16.02,3.58,24.51-9.44,4.54-18.94.45-28.35,2.98,0,7.9-.43,15.7.08,23.44,1.78,27.02,1.97,53.99-.94,80.95-.9,8.31-.72,8.65-8.58,10.09-7.63,1.4-15.39,2.17-23.86,3.31-2-39.66-3.95-78.43-5.95-118.03h-29.37c.85-10.96,1.63-20.92,2.36-30.33,30.44,1.03,59.75,2.02,91.03,3.07Z" fill="#f55536" stroke-width="0"/>
    <path d="M2256.42,177.47c14.03,1.04,26.22,1.94,39.22,2.9,4.61,40.05,1.03,79.19,1.06,118.06-12.32,6.78-24.53,5.1-38.21,3.9-.68-41.25-1.37-82.4-2.07-124.86Z" fill="#f55536" stroke-width="0"/>
    <path d="M1451.22,177.46c14.17,1.06,26.36,1.97,39.2,2.94,4.7,40.13.89,79.28,1.16,117.92-12.57,6.97-24.77,5.17-38.32,4.03-.68-41.38-1.35-82.53-2.04-124.88Z" fill="#f55536" stroke-width="0"/>
    <path d="M1448.65,131.57c14.15-3.09,26.34-5.76,39.74-8.69,2.05,11.73,3.84,22.01,5.76,33.02-13.75,5.85-27.32,8.66-41.77,12.28-1.25-12.32-2.44-23.93-3.73-36.62Z" fill="#f55536" stroke-width="0"/>
    <path d="M2257.58,168.53c-1.34-12.98-2.48-24.11-3.68-35.69,12.7-5.28,25.47-6.89,39.53-9.8,2.07,11.31,3.99,21.83,6.15,33.69-14.5,4.07-27.8,7.81-42.01,11.8Z" fill="#f55536" stroke-width="0"/>
  </g>
</svg>