<?xml version="1.0" encoding="utf-8"?>
<!-- Generator: Adobe Illustrator 28.2.0, SVG Export Plug-In . SVG Version: 6.00 Build 0)  -->
<svg version="1.1" id="layer" xmlns="http://www.w3.org/2000/svg" xmlns:xlink="http://www.w3.org/1999/xlink" x="0px" y="0px"
	 viewBox="0 0 2423.3 380.8" style="enable-background:new 0 0 2423.3 380.8;" xml:space="preserve">
<style type="text/css">
	.st0{filter:url(#drop-shadow-1);}
	.st1{fill:#F2F2F2;}
</style>
<filter  filterUnits="userSpaceOnUse" id="drop-shadow-1">
	<feOffset  dx="6.16" dy="6.16"></feOffset>
	<feGaussianBlur  result="blur" stdDeviation="1.03"></feGaussianBlur>
	<feFlood  flood-color="#a3a3a3" flood-opacity="1"></feFlood>
	<feComposite  in2="blur" operator="in"></feComposite>
	<feComposite  in="SourceGraphic" operator="over"></feComposite>
</filter>
<g class="st0">
	<path class="st1" d="M1903,273.6c-1.7-49.9-3.4-98.7-5-147.7c8.8-3.9,17.2-6,26.1-6.2c13-0.2,26-0.9,38.9-0.8c4.2,0,8.6,1.3,12.5,3
		c5.6,2.5,10.7,6,16.2,8.9c11.3,6,17.4,15.7,20.8,27.8c4.2,15.2,3.3,29.8-0.2,45.4c-4.2,19.3-13.3,34.3-27,48.1
		c-10.5,10.6-22.4,16.1-36.7,17.9c-8.1,1-16.2,2.8-24.3,3.5C1917.6,274.1,1910.8,273.6,1903,273.6L1903,273.6z"/>
	<path class="st1" d="M2083.9,205.8c-0.5-11.6-1.2-23.2-1.5-34.9c-0.4-13.4,7.6-22.1,17.6-29.4c1-0.7,2.6-0.9,3.9-1.1
		c14.6-1.5,29.3-2.6,43.9-4.7c10.9-1.5,20.2,3,27.2,9.4c7.8,7.2,14.6,16.5,15.6,28.1c2,22.1,3.6,44.3,5.6,66.4
		c0.8,8.7-2.8,16.2-6.6,23.3c-2.8,5.1-8.7,6.2-14.3,6.7c-10.6,0.9-21.1,1.7-31.7,2.5c-3.1,0.2-6.3-0.1-9.2,0.7
		c-14.5,4.2-26.8-0.9-38.6-8.7c-7.7-5.1-9.1-13.3-9.8-21.5c-0.9-12.3-1.2-24.6-1.7-36.9C2084.1,205.7,2084,205.7,2083.9,205.8
		L2083.9,205.8z"/>
	<path class="st1" d="M1308.8,211c-0.7,20.3-1.3,40.6-2,61.4c-9.7,3.1-18.8,0.9-28.8,1.4c-2-45.4-3-90.3,1.2-136.5
		c12.1,0.6,23.7,1.1,35.1,2.1c1.8,0.2,4,2.4,5.1,4.3c2.3,3.8,4.2,7.8,6,11.9c8.6,19.3,17.2,38.6,26.7,57.9c3.4-23.4,1.4-47,3.2-70.6
		h27.5c2.8,9.1,3.2,116.4,0.5,129.3c-12.6,1.5-25.4,0.5-38.5-0.4C1337.1,248.7,1322.2,230.6,1308.8,211L1308.8,211z"/>
	<path class="st1" d="M1053.7,213.2c0.5-23.4,0.9-46.8,1.4-70.5h27.6c2.9,8.9,3.4,115.2,0.7,129.3c-12.6,1.5-25.3,0.5-38.5-0.3
		c-7.1-22.1-21.8-39.6-33-59c-0.4-0.8-1.4-1.2-3-2.6c-0.7,21.2-1.3,41.5-2,62.2c-9.6,3.4-18.7,1-28.9,1.5
		c-1.5-45.3-2.6-90.2,1.2-136.4c12.2,0.6,23.7,1,35.1,2c2.1,0.2,4.5,2.9,5.6,5.1c4.2,8.2,8,16.6,11.8,25c5.6,12.5,11.1,25,16.7,37.5
		c1,2.3,2.4,4.4,3.6,6.7C1052.5,213.5,1053.1,213.4,1053.7,213.2L1053.7,213.2z"/>
	<path class="st1" d="M943.9,204.9c-10.7,0.8-20.4,1.5-30.4,2.3v28.7h49.4c1.3,9.8,2.5,18.7,3.8,28c-32.9,3.9-64.4,7.7-96.8,11.5
		c-2-52.8-4-105.9-6-159.9c28.1,0,55.9,0.5,84.9,3.9c-1.3,9.5-2.4,18.1-3.7,27.7c-10.9,0.6-21.3,1.2-32.4,1.8v23.2h23.3
		C940.4,183,942.4,193.2,943.9,204.9L943.9,204.9z"/>
	<path class="st1" d="M1445.1,172.5h24.4c2.5,10.6,4.9,20.7,7.6,32.3c-11.3,0.9-21.1,1.6-32.2,2.4c0.4,9.5,0.8,18.5,1.3,28.7h49.1
		c1.3,9.7,2.5,18.3,3.8,27.9c-32.8,3.9-64.5,7.7-96.8,11.6c-1.9-52.9-3.9-105.7-5.9-159.9c27.8,0,55.8,0.3,85.1,4
		c-1.4,9.5-2.6,18.2-4,27.7c-11,0.6-21.4,1.1-32.4,1.7V172.5L1445.1,172.5z"/>
	<path class="st1" d="M340.6,134.9h29.1c-0.6,18.9-1.1,37.5-1.8,58.3c7.2-6.3,12.7-10.8,17.8-15.6c12.1-11.8,26.2-20.8,40.4-29.8
		c4.8-3,9.1-4,14.3-1.5c3.1,1.4,6.6,1.9,9.7,3.2c5,2,5.9,5.4,2.4,9.4c-1.8,2.1-4,3.7-6.1,5.4c-14.3,11.6-28.7,23.2-44,35.5
		c1.8,2.8,3.7,5.9,5.7,8.9c10.5,16,21,32,31.4,48.1c1.8,2.9,3.5,6,4.5,9.2c1.1,3.4,0.8,6.9-3.5,8.4c-12.2,4.3-23.9,10-37.5,12.3
		c-12.8-18.9-16.5-42.2-30.1-60.5c-5.1,0.9-4.1,4.7-4.3,7.9c-0.8,11.3-1.5,22.5-2.4,33.8c-0.1,1.3-0.6,2.6-1,4.4
		c-9.8,2.4-19.5,1.2-29.5,0.4C337.4,226.6,339,181,340.6,134.9L340.6,134.9z"/>
	<path class="st1" d="M1596.6,114c22.4-4.5,44-8.9,66.5-13.4c2.6,8.7,5,16.4,7.4,24.5c-9.3,5.8-17.8,11.4-26.7,16.5
		c-5.6,3.2-9.6,7.2-11,13.8c-1.1,5.3-3.4,10.4-5.4,16.4c15.2,13,32,24,49.3,36.1c-1.4,6.7-2.8,13.6-4.2,20.6
		c-1.6,7.7-3.4,15.4-4.6,23.1c-0.9,5.6-3.4,9.2-8.8,11.3c-8,3.1-15.7,6.9-23.7,9.8c-3,1.1-6.8,1.6-9.9,1c-15-3.2-29.9-6.9-45.3-10.5
		v-24.1c14.5-0.5,29.1-1.1,43.4-1.7c3.3-6.9,1.6-11.5-3.4-16.1c-10.1-9.3-19.5-19.1-29.4-28.6c-5.7-5.5-7-11.4-5.1-19.4
		c3.7-15.3,5.9-30.9,8.7-46.3C1595.1,123.2,1595.7,119.2,1596.6,114L1596.6,114z"/>
	<path class="st1" d="M244.4,114c21.8-4.4,43.2-8.8,65.9-13.4c2.7,8.4,5.2,16.3,7.7,24.4c-9.9,6.2-18.7,12.1-27.8,17.3
		c-5.1,2.9-8.4,6.7-9.6,12.4c-0.2,1-0.5,2-0.8,3c-4.9,14.9-5,15,8,24.5c11.6,8.5,23.3,16.7,35.6,25.5c-0.1,2.2,0,4.9-0.5,7.5
		c-2.4,12.1-5.4,24-7.4,36.1c-1,6.2-3.9,9.8-9.5,12c-7.6,3-15.1,6.5-22.7,9.4c-2.8,1-6.1,1.9-8.9,1.3c-15.6-3.3-31.2-7.1-47-10.8
		v-23.9c14.5-0.6,29.3-1.2,43.5-1.8c3.5-6.7,2.1-11.1-2.6-15.5c-10.7-10-21-20.6-31.4-30.9c-3.7-3.6-5.4-7.7-4.4-12.9
		C236.2,157.2,240.2,136.1,244.4,114L244.4,114z"/>
	<path class="st1" d="M1162.9,227.6c-0.5-10.1-0.9-19.6-1.5-30.2c11.3-1.7,22.1-1.9,32.9-1.5c4.3,0.2,15.8,13.5,16.1,18.6
		c0.6,10.2,1.3,20.3-1.5,30.6c-4.6,17-15.9,26.1-32.4,28.7c-16.5,2.6-32.8,0.6-48.2-6.1c-12.9-5.6-21.8-15-27.1-27.9
		c-14.7-36-2.1-83,28.7-106.5c9.5-7.3,31.2-12.6,44.3-10.6c3.9,8.2,8,16.8,12.5,26.2c-3.7,1.9-6.8,3.6-10.1,5.1
		c-14.4,6.3-26.3,15.8-35.9,28.2c-2.7,3.5-5.2,7.2-7.2,11.2c-7.2,14.6-4.4,31,7,42.6c4.3,4.3,9.5,7,15.6,6.8
		c6.3-0.1,12.6-1.2,19.7-2c-0.4-4.6-0.8-7.9-1.1-11.5C1170.7,228.7,1167.4,228.2,1162.9,227.6L1162.9,227.6z"/>
	<path class="st1" d="M467.3,145.1c13.7,0.8,26.5,1.5,40.1,2.2c0.3,5.4,0.9,10.1,0.7,14.8c-1.3,22.5-2.8,45-4.1,67.5
		c-0.2,3.6-0.1,7.7,1.3,10.9c4.1,8.8,18.9,12.7,27.3,7.4c1.8-1.1,3.3-3.7,3.7-5.8c1.5-8.4,3.5-16.8,3.7-25.2
		c0.4-16.4,0.7-32.8-2.9-49c-1.1-5.2-0.2-10.8-0.2-17.5c9.5-1.2,19.1-2.4,29.9-3.7c1.7,10.6,3.5,19.9,4.5,29.3
		c1.1,10.2,1.1,20.5,2.2,30.7c1.5,15.1-1.9,29.4-6.9,43.1c-4.7,13-14.2,21.6-28.9,22.4c-12.2,0.7-24.5,1.7-36.8,1.4
		c-16-0.4-24.3-7.8-28.3-23.1c-6-23-8-46.4-7.2-70.1C465.8,168.8,466.6,157.3,467.3,145.1L467.3,145.1z"/>
	<path class="st1" d="M1781.8,145.1c13.9,0.8,26.4,1.4,40,2.2c0.3,4.3,1.1,8.3,0.9,12.2c-1.1,20.5-2.4,40.9-3.6,61.4
		c-0.2,4.1-0.7,8.2-0.8,12.3c-0.1,10.4,6.2,16.7,16.3,16.5c0.3,0,0.7,0,1,0c13.3-0.4,16-2.7,17.5-15.9c2.4-21.1,2.7-42.2-1.1-63.3
		c-1.1-6-1-12.2-1.5-18.6c9.7-4.4,19.6-3.7,29.6-4.8c4.8,10.4,4.7,21.1,5.9,31.4c1,8.1,0.9,16.4,1.8,24.5c1.9,16-1.7,31.2-6.3,46.3
		c-3.3,10.8-16.9,23.3-29.8,23c-11.9-0.2-23.9,1.5-35.8,1.2c-16.7-0.4-24.8-7.6-29-23.6c-6-23.4-8-47.1-7-71.2
		C1780.5,168,1781.2,157.1,1781.8,145.1L1781.8,145.1z"/>
	<path class="st1" d="M780.6,237.5c0,11.1,0.1,21.3-0.1,31.5c0,3.4-0.8,6.7-1.3,11.1c-30.1-2.3-59.6-4.5-89.9-6.7V127.9h43.8
		c-0.4,18.2-1,36.2-1.2,54.2c-0.2,17.7,0,35.4,0,53.4C748.8,238.4,764.3,239.8,780.6,237.5L780.6,237.5z"/>
	<path class="st1" d="M627.9,236.8c16.3,0.7,31.9,1.4,48.5,2.1c0.7,12.8,0,26.6-1.8,41.3c-30.3-2.3-59.9-4.5-90-6.8V128.2
		c6.7-0.2,13.7-0.6,20.7-0.8c7.2-0.1,14.3,0,23,0c1,18.1-1.7,36-1.2,53.9C627.6,199.4,627.7,217.4,627.9,236.8L627.9,236.8z"/>
	<path class="st1" d="M1766,128.5c1.1,7.7,2.3,16,3.6,24.5c-9.4,4.5-18.9,0.4-28.3,3c0,7.9-0.4,15.7,0.1,23.4c1.8,27,2,54-0.9,80.9
		c-0.9,8.3-0.7,8.6-8.6,10.1c-7.6,1.4-15.4,2.2-23.9,3.3c-2-39.7-3.9-78.4-5.9-118h-29.4c0.8-11,1.6-20.9,2.4-30.3
		C1705.4,126.4,1734.7,127.4,1766,128.5L1766,128.5z"/>
	<path class="st1" d="M2029.3,148.6c14,1,26.2,1.9,39.2,2.9c4.6,40.1,1,79.2,1.1,118.1c-12.3,6.8-24.5,5.1-38.2,3.9
		C2030.6,232.2,2030,191.1,2029.3,148.6L2029.3,148.6z"/>
	<path class="st1" d="M1224.1,148.6c14.2,1.1,26.4,2,39.2,2.9c4.7,40.1,0.9,79.3,1.2,117.9c-12.6,7-24.8,5.2-38.3,4
		C1225.4,232.1,1224.7,190.9,1224.1,148.6L1224.1,148.6z"/>
	<path class="st1" d="M1221.5,102.7c14.2-3.1,26.3-5.8,39.7-8.7c2.1,11.7,3.8,22,5.8,33c-13.8,5.9-27.3,8.7-41.8,12.3
		C1224,127,1222.8,115.4,1221.5,102.7L1221.5,102.7z"/>
	<path class="st1" d="M2030.4,139.7c-1.3-13-2.5-24.1-3.7-35.7c12.7-5.3,25.5-6.9,39.5-9.8c2.1,11.3,4,21.8,6.1,33.7
		C2057.9,131.9,2044.6,135.7,2030.4,139.7L2030.4,139.7z"/>
</g>
</svg>
