<svg xmlns="http://www.w3.org/2000/svg" xmlns:xlink="http://www.w3.org/1999/xlink" version="1.1" viewBox="4.2 0 398.83 380.78">
  <defs>
    <clipPath id="a">
      <path stroke-width="0" d="M38.79 306.03 0 220.32l67.75-10.87 38.79 85.71z"/>
    </clipPath>
    <clipPath id="b">
      <path stroke-width="0" d="m342.15 259.71-40.61-89.73 75.75-12.17 40.62 89.73z"/>
    </clipPath>
    <filter id="c" filterUnits="userSpaceOnUse">
      <feOffset dx="6.16" dy="6.16"/>
      <feGaussianBlur result="blur" stdDeviation="1.03"/>
      <feFlood flood-color="#a3a3a3" flood-opacity="1"/>
      <feComposite in2="blur" operator="in"/>
      <feComposite in="SourceGraphic"/>
    </filter>
  </defs>
  <path d="M96.12 214.82s87.92-102.17 204.98-50.84l14.33 54.24s19.33 54.53-31.77 61.21c3.34 13.07-3.11 22.56-2.63 32.73.47 10.17 21.02 50.36-10.52 57.62s-88.87 8.72-124.71-28.09c-6.21-6.29 7.16-44.55 3.83-50.36-3.34-5.82-67.85-9.69-53.5-76.51Z" stroke="#000" stroke-linecap="round" stroke-linejoin="round" stroke-width="13.73"/>
  <path d="M94.67 216.84c-.57 0-1.12-.23-1.53-.7-.53-.6-13.02-15.05-21.59-35.29-5.07-11.96-7.67-23.45-7.75-34.15-.1-13.45 3.83-25.63 11.64-36.21 13.13-22.11 34.54-40.73 60.32-52.42 12.25-5.55 24.87-9.28 37.51-11.12 12.88-1.86 25.15-1.63 36.47.68.79.16 1.42.8 1.59 1.61 3.03 15.32 1.81 29.84-3.62 43.14-4.33 10.62-11.34 20.48-20.82 29.28-16.06 14.93-33.44 21.61-34.17 21.9-1.06.39-2.22-.14-2.63-1.22a2.08 2.08 0 0 1 1.2-2.66c.16-.06 17.46-6.74 32.93-21.16 20.19-18.81 28.04-41.39 23.38-67.15-5.74-1.09-11.68-1.61-17.71-1.61-42.15 0-88.89 25.53-111 62.88-.04.06-.08.12-.12.19-13.31 17.94-14.51 40.24-3.52 66.24 8.3 19.65 20.82 34.13 20.94 34.28.75.85.67 2.17-.18 2.91-.39.41-.85.58-1.34.58Z" stroke="#000" stroke-miterlimit="10" stroke-width="10.24"/>
  <path d="M301.56 167.94c-.9 0-1.71-.6-1.95-1.51-.31-1.09.33-2.23 1.4-2.54.26-.08 22.83-6.62 41.33-21.43 14.35-11.47 25.22-28.71 30.59-48.55 6.88-24.93-2.87-47.27-9-55.6-6.63-9.03-20.31-16.6-37.55-20.77-20.43-4.95-45.12-4.1-67.73 2.33-22.71 6.45-40.07 17.69-47.58 30.83-.57.99-1.81 1.32-2.79.74s-1.3-1.84-.73-2.83c4.17-7.28 10.87-13.88 19.94-19.65 8.38-5.34 18.78-9.86 30.06-13.07 23.26-6.62 48.7-7.49 69.78-2.37 18.13 4.39 32.66 12.54 39.87 22.31 4.56 6.23 8.34 15.08 10.38 24.29 2.58 11.71 2.32 23.76-.75 34.87-5.6 20.66-16.97 38.69-31.99 50.69-19.17 15.32-41.8 21.88-42.76 22.15-.16.04-.35.08-.53.08ZM112.18 72.33c-.59.02-1.18-.23-1.59-.7-.2-.25-5.09-6.04-3.56-13.32 1.2-5.67 5.86-10.48 13.86-14.25 11.19-5.28 18.7-7.28 24.36-6.43 6.8.99 10.24 6 12.68 10.77.53 1.01.14 2.25-.85 2.78-1 .54-2.22.14-2.75-.87-4.38-8.5-8.95-13.26-31.71-2.5-6.78 3.22-10.68 7.03-11.6 11.38-1.12 5.3 2.6 9.71 2.65 9.75.73.87.65 2.17-.2 2.91-.37.31-.81.47-1.28.47Z" stroke="#000" stroke-miterlimit="10" stroke-width="10.24"/>
  <path d="M145.8 115.76c-.9 0-1.71-.6-1.95-1.53-11.05-40.75-4.84-55.6-4.56-56.22.47-1.03 1.67-1.51 2.69-1.03 1.02.45 1.49 1.67 1.04 2.7-.04.08-1.49 3.65-1.63 11.92-.14 7.69.88 21.16 6.39 41.53.31 1.09-.35 2.23-1.42 2.54-.18.06-.37.08-.55.08Z" fill="none" stroke="#000" stroke-miterlimit="10" stroke-width="10.24"/>
  <ellipse cx="271.47" cy="220.99" rx="25.38" ry="37.26" transform="rotate(-2.15 271.993 221.546)" fill="#f2f2f2" stroke="#000" stroke-miterlimit="10" stroke-width="1.02"/>
  <ellipse cx="183.03" cy="223.51" rx="33.25" ry="41.61" transform="rotate(-2.1 183.11 223.585)" fill="#f2f2f2" stroke="#black" stroke-miterlimit="10" stroke-width="1.02"/>
  <ellipse cx="241.95" cy="261.01" rx="7.16" ry="13.58" transform="rotate(-37.58 241.93 260.99)" fill="#f2f2f2" stroke="#000" stroke-miterlimit="10" stroke-width="1.02"/>
  <ellipse cx="231.35" cy="262.13" rx="13.76" ry="7.04" transform="rotate(-63.09 231.353 262.14)" fill="#f2f2f2" stroke="#000" stroke-miterlimit="10" stroke-width="1.02"/>
  <path d="M313.04 241.15s.63 24.21-26.01 29.06c-11.46 2.27-11.25 11.3-11.25 11.3s1.77 26.38-7.22 31.31c-7.37 4.06-8.34-4.52-8.49-5.16-.37-.89-2.3-19.55-6.37-8.6-1.59 3.98-.75 16.46-8.08 16.89s-7.43-14.75-7.43-14.75-2.01-13.34-5.64 0c-1.28 5.28-3.2 20.77-11.68 12.91-3.07-3.34-6.17-30.23-11.15-11.51-3.13 12.7-10.56 19.18-16.46 5.59-2.6-5.77-2.44-27.43-10.2-31.74-7.75-4.31-24.73-3.77-34.62-18.29-2.91-5.11-5.41-13.36-6.78-17.18-.22-.62-.35-.89-.61-1.48-.16-.41-.94-2.25-1.67-2.52-.55-.21-1 .39-.81 3.11.43 6.25 2.32 18.5 10.83 29.37 16.46 16.56 29.94 3.65 30.99 30.01 3.4 27.02 21.55 25.39 21.55 25.39s8.71-.43 11.58-5.05c0 0 11.25 10.33 23.14-.43 0 0 8.91 8.93 19.74-.33 0 0 8.12 6.6 16.24.1.1-.04 2.93-2.14 4.36 3.34 1.42 5.49 6.9-33.14 6.9-33.14l3.93-9.82 18.58-9.55 9.97-19.69z" fill="#f2f2f2" stroke="#000" stroke-linecap="round" stroke-linejoin="round" stroke-width=".2"/>
  <g stroke-width="0" clip-path="url(#a)">
    <path d="M16.79 236.55c-.47-1.18-.69-2.31-.69-3.4-.02-1.86.59-3.55 1.73-4.87.57-.66 1.28-1.22 2.1-1.65s1.75-.74 2.81-.93l29.94-4.81c1.4-.23 2.85-.16 4.27.12 2.14.43 4.25 1.42 6.04 2.8.9.68 1.71 1.46 2.42 2.33.57.7 1.06 1.44 1.47 2.23 1.85.39 3.62 1.71 4.42 3.44.77 1.73.37 3.38-.9 4.29l1.67 3.67c1.85.39 3.6 1.71 4.4 3.44.77 1.73.37 3.38-.9 4.29l13.98 30.89c.61 1.34.9 2.66.92 3.9.02 1.86-.59 3.55-1.73 4.87-.57.66-1.26 1.22-2.1 1.65-.81.43-1.75.74-2.81.93l-29.94 4.81c-1.4.23-2.85.16-4.27-.12-2.14-.45-4.25-1.42-6.04-2.8-.9-.68-1.71-1.46-2.42-2.33s-1.3-1.79-1.77-2.8l-14.04-31c-1.75-.45-3.38-1.73-4.13-3.38s-.41-3.24.71-4.15l-1.75-3.88c-1.75-.45-3.38-1.73-4.13-3.38-.73-1.67-.39-3.26.75-4.17m32.04-24.05L18.9 217.3c-2.6.41-4.86 1.32-6.72 2.6-2.77 1.92-4.62 4.68-5.35 7.9-.37 1.61-.45 3.34-.22 5.14.22 1.79.73 3.65 1.59 5.53l22.39 49.45c1.12 2.5 2.75 4.81 4.68 6.83 2.91 3.03 6.55 5.4 10.46 6.87 1.95.74 3.97 1.24 5.98 1.48s4.05.23 5.98-.08l29.94-4.81c2.6-.41 4.86-1.32 6.72-2.62 2.77-1.92 4.62-4.68 5.35-7.9.37-1.61.45-3.34.22-5.14-.22-1.79-.73-3.65-1.59-5.53l-22.39-49.45c-1.12-2.5-2.75-4.81-4.68-6.83-2.91-3.03-6.55-5.4-10.46-6.87-1.95-.74-3.97-1.24-5.98-1.48-2.01-.23-4.03-.21-5.98.1"/>
    <path d="M18.54 235.79c-.71.1-1.3.37-1.77.76-1.12.93-1.47 2.52-.73 4.17.75 1.65 2.38 2.91 4.13 3.38.73.19 1.47.25 2.18.12 15.49-2.47 30.95-4.97 46.44-7.44.63-.1 1.16-.33 1.61-.64 1.26-.91 1.67-2.56.9-4.29-.79-1.73-2.56-3.05-4.42-3.44-.63-.14-1.28-.16-1.89-.06q-23.205 3.705-46.44 7.44" fill="#black"/>
    <path d="M23.71 247.19c-.71.12-1.3.39-1.77.76-1.12.93-1.47 2.52-.71 4.15.75 1.65 2.38 2.91 4.13 3.38.73.19 1.47.25 2.18.12 15.49-2.47 30.95-4.97 46.44-7.44.63-.1 1.16-.33 1.61-.64 1.26-.91 1.67-2.56.9-4.29s-2.54-3.03-4.4-3.44a5.1 5.1 0 0 0-1.91-.06c-15.51 2.5-30.97 4.99-46.46 7.47m30.15 11.58c-1.51.25-2.83.76-3.91 1.53-1.63 1.11-2.69 2.72-3.11 4.6-.2.95-.26 1.94-.14 2.99s.43 2.12.94 3.22c.65 1.44 1.61 2.8 2.73 3.98 1.69 1.77 3.83 3.16 6.09 4 1.14.43 2.32.72 3.48.87 1.18.14 2.36.12 3.5-.04 1.51-.25 2.83-.76 3.91-1.53 1.63-1.11 2.69-2.72 3.11-4.6.2-.95.26-1.94.14-2.99s-.43-2.12-.94-3.22l-3.07.49-3.07.49c.31.66.43 1.28.45 1.88 0 .89-.28 1.71-.83 2.33-.28.31-.61.58-1 .78s-.83.35-1.36.43c-.67.1-1.36.08-2.06-.06a7.1 7.1 0 0 1-2.91-1.34c-.43-.33-.83-.7-1.16-1.11-.35-.41-.63-.87-.85-1.36-.31-.66-.43-1.28-.45-1.88-.02-.89.28-1.71.83-2.33.26-.31.61-.58 1-.78s.83-.35 1.36-.43c.67-.1 1.36-.08 2.06.06a7.1 7.1 0 0 1 2.91 1.34c.43.33.83.7 1.16 1.11.35.41.63.87.85 1.36l3.07-.49 3.07-.49c-.65-1.44-1.59-2.8-2.73-3.98a16.4 16.4 0 0 0-6.09-4c-1.14-.43-2.32-.72-3.48-.87-1.2-.14-2.38-.14-3.5.04"/>
  </g>
  <g stroke-width="0" clip-path="url(#b)">
    <path d="M328.84 165.59c-2.28.37-4.31 1.11-6.02 2.17-2.58 1.59-4.48 3.88-5.49 6.62-.51 1.38-.81 2.87-.85 4.43s.14 3.24.61 4.93l13.68 50.13c.28 1.03.65 2.04 1.1 3.01.98 2.19 2.36 4.23 4.01 6.08 2.48 2.76 5.58 5.07 9.02 6.7 1.71.8 3.5 1.44 5.33 1.88 1.83.43 3.7.66 5.56.66l31.65-.06c1.12 0 2.18-.08 3.22-.25 2.28-.37 4.31-1.11 6.02-2.17 2.58-1.59 4.48-3.88 5.49-6.62.51-1.38.79-2.87.85-4.43.04-1.57-.14-3.24-.61-4.93l-13.68-50.13c-.28-1.03-.65-2.04-1.1-3.01-1-2.19-2.36-4.23-4.01-6.08-2.48-2.76-5.58-5.07-9.02-6.7-1.71-.8-3.5-1.44-5.35-1.88-1.83-.43-3.7-.66-5.56-.66l1.16 4.27 1.16 4.27c1.34 0 2.67.23 3.95.62 1.91.6 3.74 1.63 5.29 2.93 1.55 1.32 2.79 2.89 3.58 4.64.14.33.28.68.41 1.01 1.83.66 3.4 2.17 3.89 3.92.47 1.75-.26 3.26-1.73 3.92l1.02 3.73c1.83.66 3.38 2.17 3.87 3.92.47 1.75-.26 3.26-1.73 3.92l8.55 31.33c.33 1.24.41 2.39.26 3.46a7.04 7.04 0 0 1-2.08 4.12c-1.14 1.09-2.65 1.84-4.48 2.12-.55.08-1.12.14-1.73.14l-31.65.06c-1.34 0-2.67-.23-3.95-.62-1.91-.6-3.74-1.63-5.27-2.93-1.55-1.32-2.79-2.89-3.58-4.64-.24-.52-.43-1.07-.59-1.63l-8.57-31.43c-1.71-.7-3.15-2.14-3.6-3.82s.18-3.11 1.53-3.82l-1.08-3.94c-1.71-.7-3.13-2.14-3.6-3.82-.45-1.67.2-3.13 1.53-3.84a8.9 8.9 0 0 1-.14-2.97c.22-1.61.96-3.03 2.08-4.12 1.14-1.09 2.65-1.84 4.48-2.12.55-.08 1.12-.14 1.73-.14l31.65-.06-1.16-4.27-1.16-4.27-31.65.06c-1.12.04-2.18.12-3.22.29"/>
    <path d="M327.45 182.85c-.45.06-.85.21-1.2.39-1.34.7-1.99 2.14-1.53 3.84.45 1.67 1.89 3.11 3.6 3.82.71.29 1.47.45 2.22.45 16.36-.02 32.75-.06 49.11-.08q.39 0 .75-.06c.37-.06.71-.16 1.02-.31 1.47-.66 2.2-2.17 1.73-3.92-.49-1.75-2.06-3.28-3.89-3.92-.63-.23-1.28-.35-1.93-.35-16.36.02-32.75.06-49.11.08-.28 0-.55.02-.77.06m3.16 11.57c-.45.08-.85.21-1.22.39-1.32.7-1.97 2.14-1.53 3.82s1.89 3.11 3.6 3.82c.71.29 1.47.45 2.22.45 16.36-.02 32.72-.06 49.11-.08a4.6 4.6 0 0 0 1.77-.35c1.47-.66 2.2-2.17 1.73-3.92s-2.04-3.26-3.87-3.92c-.63-.23-1.3-.35-1.95-.35-16.36.02-32.75.06-49.11.08-.26 0-.53.02-.75.06m34.57 30.81c-.26.04-.55.06-.83.06-.65 0-1.28-.1-1.89-.31-.92-.29-1.79-.78-2.54-1.42-.73-.64-1.34-1.4-1.71-2.23-.12-.25-.2-.52-.28-.78-.16-.6-.2-1.15-.12-1.67.1-.78.45-1.46 1-1.98s1.28-.89 2.16-1.03c.26-.04.55-.06.83-.06.65 0 1.28.1 1.89.31.92.29 1.79.78 2.54 1.42.73.64 1.34 1.4 1.71 2.23.12.25.2.52.28.78.16.6.2 1.15.12 1.67-.1.78-.45 1.46-1 1.98-.55.54-1.28.89-2.16 1.03m-6.94-15.24c-1.32.21-2.5.64-3.5 1.26-1.51.93-2.6 2.25-3.22 3.86-.59 1.61-.67 3.49-.14 5.47.16.6.39 1.18.63 1.75.57 1.28 1.38 2.47 2.34 3.55a16.5 16.5 0 0 0 5.25 3.9c1.99.95 4.19 1.48 6.35 1.48.65 0 1.28-.06 1.87-.14h.02c1.32-.21 2.5-.64 3.5-1.26 1.51-.93 2.6-2.25 3.22-3.86.59-1.61.67-3.49.14-5.47-.16-.6-.37-1.18-.63-1.75-.57-1.28-1.38-2.47-2.34-3.55a16.5 16.5 0 0 0-5.25-3.9c-1.99-.95-4.19-1.48-6.35-1.48-.65 0-1.28.04-1.89.14.02 0 0 0 0 0"/>
  </g>
  <path d="M26.52 216.84c-21.98-44.83-23.87-98.76 0-139.08S84.86 14.07 134.56 7.18s100.39 4.99 109.65 13.32" fill="none" stroke="#000" stroke-linecap="round" stroke-linejoin="round" stroke-width="10.24"/>
  <path d="M44.2 216.84c-21.98-44.83-23.85-95.5 0-135.86 19.62-33.18 60.75-53.58 98.36-57.46 30.32-3.11 68.36.47 84.93 7.92m117.04 110.27c3.05 2.89 5.01 6.78 7.14 11.14 2.32 4.7 3.22 6.91 5.88 14.64m-25.91-17.06c.96 1.36 3.95 6.58 4.92 8.74 1 2.27 2.5 5.14 3.4 8.74" fill="none" stroke="#000" stroke-linecap="round" stroke-linejoin="round" stroke-width="10.24"/>
  <g filter="url(#c)" fill="#f2f2f2" stroke-width="0">
   

  </g>
</svg>